<svg xmlns="http://www.w3.org/2000/svg" role="img" viewBox="21.843 32.157 156.313 135.686" preserveAspectRatio="xMidYMid meet" width="200" height="200" data-type="color" data-bbox="21.843 32.157 156.313 135.686">
    <g>
        <path fill="#253c57" d="M 137.337 99.445 c -14.252 0 -26.578 4.431 -33.854 11.295 v -5.713 c 0 -14.588 -17.93 -26.015 -40.82 -26.015 s -40.82 11.427 -40.82 26.015 v 39.729 l 10.668 1.106 a 291.66 291.66 0 0 0 30.049 1.549 c 9.792 0 19.589 -0.491 29.315 -1.474 l 4.641 -0.469 v 19.719 l 10.613 1.102 a 291.794 291.794 0 0 0 30.097 1.554 c 9.778 0 19.559 -0.49 29.269 -1.47 l 11.661 -1.177 v -39.737 c 0.001 -14.587 -17.929 -26.014 -40.819 -26.014 Z m -40.856 38.989 l -5.309 0.536 c -2.3 0.232 -4.605 0.433 -6.912 0.609 v -25.966 h -2.546 v 26.133 a 285.175 285.175 0 0 1 -38.104 0.011 v -26.144 h -2.546 v 25.978 a 284.205 284.205 0 0 1 -7.832 -0.695 l -4.388 -0.454 v -33.416 c 0 -10.306 15.486 -19.013 33.818 -19.013 S 96.48 94.72 96.48 105.026 v 33.408 Z m 74.674 20.432 l -5.361 0.54 c -2.283 0.231 -4.57 0.429 -6.859 0.604 v -26.207 h -2.546 v 26.375 a 285.343 285.343 0 0 1 -38.104 0.012 v -26.387 h -2.546 v 26.221 a 280.505 280.505 0 0 1 -7.887 -0.7 l -4.333 -0.449 v -33.416 c 0 -10.306 15.486 -19.012 33.818 -19.012 s 33.818 8.706 33.818 19.012 v 33.407 Z" data-color="1" />
        <path fill="#253c57" d="M 137.337 94.011 c 11.447 0 20.76 -9.312 20.76 -20.76 s -9.313 -20.76 -20.76 -20.76 s -20.76 9.312 -20.76 20.76 s 9.313 20.76 20.76 20.76 Z m 0 -34.517 c 7.586 0 13.758 6.172 13.758 13.758 s -6.171 13.758 -13.758 13.758 s -13.758 -6.172 -13.758 -13.758 s 6.171 -13.758 13.758 -13.758 Z" data-color="1" />
        <path fill="#253c57" d="M 62.663 73.677 c 11.447 0 20.76 -9.312 20.76 -20.76 s -9.313 -20.76 -20.76 -20.76 s -20.76 9.312 -20.76 20.76 s 9.313 20.76 20.76 20.76 Z m 0 -34.517 c 7.586 0 13.758 6.172 13.758 13.758 S 70.25 66.675 62.663 66.675 s -13.758 -6.172 -13.758 -13.758 S 55.077 39.16 62.663 39.16 Z" data-color="1" />
    </g>
</svg>