<svg xmlns="http://www.w3.org/2000/svg" role="img" viewBox="17.472 17.475 165.057 165.051" preserveAspectRatio="xMidYMid meet" width="200" height="200" data-type="color" data-bbox="17.472 17.475 165.057 165.051">
    <g>
        <path fill="#253c57" d="M 177.947 42.083 l -20.025 -20.026 c -2.955 -2.955 -6.884 -4.582 -11.062 -4.582 s -8.107 1.627 -11.062 4.582 l -14.045 14.045 a 15.54 15.54 0 0 0 -4.582 11.062 c 0 3.297 1.027 6.431 2.907 9.062 c -5.855 3.782 -18.36 12.565 -33.538 27.32 c -0.079 0.066 -0.165 0.121 -0.239 0.195 c -0.427 0.427 -0.841 0.849 -1.259 1.272 c -0.438 0.432 -0.874 0.861 -1.316 1.302 c -0.076 0.076 -0.131 0.162 -0.198 0.243 c -14.745 15.169 -23.525 27.666 -27.31 33.525 c -6.106 -4.345 -14.647 -3.797 -20.119 1.673 l -14.045 14.046 c -2.955 2.954 -4.582 6.883 -4.582 11.062 s 1.627 8.107 4.582 11.062 l 20.026 20.026 a 15.599 15.599 0 0 0 11.062 4.574 c 4.006 0 8.012 -1.525 11.062 -4.574 l 14.045 -14.046 a 15.539 15.539 0 0 0 4.582 -11.062 a 15.53 15.53 0 0 0 -2.85 -9.007 c 5.86 -3.787 18.357 -12.566 33.523 -27.309 c 0.079 -0.066 0.165 -0.121 0.239 -0.195 c 0.435 -0.435 0.856 -0.864 1.281 -1.294 c 0.431 -0.425 0.86 -0.846 1.294 -1.281 c 0.075 -0.075 0.13 -0.161 0.196 -0.24 c 14.766 -15.189 23.55 -27.702 27.327 -33.55 a 15.613 15.613 0 0 0 8.999 2.86 c 4.007 0 8.013 -1.525 11.062 -4.574 l 14.045 -14.045 a 15.54 15.54 0 0 0 4.582 -11.062 c 0 -4.181 -1.627 -8.109 -4.582 -11.064 Z m -4.885 17.239 l -0.198 0.198 l -18.425 -18.425 l -1.775 1.776 l 18.424 18.424 l -12.071 12.071 c -3.406 3.407 -8.948 3.406 -12.354 0 l -0.324 -0.324 l -0.484 -0.278 a 3.429 3.429 0 0 0 -1.13 -1.051 a 3.441 3.441 0 0 0 -3.486 0.064 a 3.424 3.424 0 0 0 -1.568 1.415 a 3.415 3.415 0 0 0 -0.37 1.012 c -2.533 4.109 -11.881 18.43 -29.162 35.948 c -20.721 20.44 -36.975 29.785 -37.14 29.878 a 3.453 3.453 0 0 0 -1.301 4.706 c 0.212 0.375 0.488 0.689 0.801 0.949 l 0.015 0.128 l 0.852 0.853 a 8.68 8.68 0 0 1 2.559 6.177 a 8.678 8.678 0 0 1 -2.559 6.177 l -11.041 11.042 l -18.424 -18.424 l -1.776 1.775 l 18.425 18.425 l -1.228 1.228 c -3.407 3.406 -8.95 3.406 -12.355 0 L 26.938 153.04 c -1.65 -1.649 -2.559 -3.844 -2.559 -6.177 s 0.909 -4.527 2.559 -6.177 l 1.229 -1.229 l 6.06 6.06 l 1.776 -1.775 l -6.06 -6.06 l 11.041 -11.041 c 3.405 -3.406 8.948 -3.407 12.354 0 c 0.239 0.239 0.511 0.421 0.794 0.575 c 0.293 0.456 0.683 0.857 1.187 1.143 a 3.453 3.453 0 0 0 4.708 -1.299 c 0.094 -0.165 9.446 -16.431 29.902 -37.163 c 20.71 -20.424 36.952 -29.761 37.116 -29.855 a 3.454 3.454 0 0 0 1.301 -4.707 a 3.424 3.424 0 0 0 -1.119 -1.173 a 3.396 3.396 0 0 0 -0.589 -0.821 c -1.65 -1.65 -2.559 -3.844 -2.559 -6.177 s 0.908 -4.527 2.559 -6.177 l 12.071 -12.071 l 6.06 6.06 l 1.775 -1.776 l -6.06 -6.06 l 0.198 -0.198 a 8.678 8.678 0 0 1 6.177 -2.559 c 2.334 0 4.527 0.909 6.178 2.559 l 20.025 20.026 a 8.68 8.68 0 0 1 2.559 6.177 a 8.683 8.683 0 0 1 -2.559 6.177 Z" data-color="1" />
        <path fill="#253c57" d="M 112.557 76.7 c -5.943 4.802 -11.858 10.066 -17.62 15.677 l -0.018 -0.018 c -0.327 0.327 -0.644 0.661 -0.97 0.99 c -0.535 0.527 -1.072 1.052 -1.604 1.584 l 0.027 0.027 a 261.244 261.244 0 0 0 -12.485 13.734 l 1.92 1.619 c 4.198 -4.977 8.735 -9.924 13.482 -14.742 c 6.149 -6.076 12.479 -11.773 18.846 -16.918 l -1.578 -1.953 Z" data-color="1" />
    </g>
</svg>