<svg xmlns="http://www.w3.org/2000/svg" role="img" viewBox="44.682 15.976 110.636 171.155" preserveAspectRatio="xMidYMid meet" width="200" height="200" data-type="color" data-bbox="44.682 15.976 110.636 171.155">
    <g>
        <path fill="#253c57" d="M 141.573 15.976 H 58.427 c -7.579 0 -13.745 6.167 -13.745 13.746 v 114.187 c 0 7.579 6.166 13.745 13.745 13.745 h 18.586 v 29.477 l 22.783 -17.42 l 22.783 17.42 v -29.477 h 18.994 c 7.579 0 13.745 -6.166 13.745 -13.745 V 29.722 c 0 -7.58 -6.166 -13.746 -13.745 -13.746 Z M 80.411 117.35 c -0.073 -0.873 -0.194 -2.334 0.014 -2.693 c 0.275 -0.325 1.784 -0.678 2.595 -0.867 c 1.532 -0.358 3.269 -0.764 4.709 -1.812 c 1.427 -1.038 2.34 -2.555 3.145 -3.893 c 0.438 -0.728 1.254 -2.083 1.632 -2.22 a 0.465 0.465 0 0 1 0.087 -0.007 c 0.489 0 1.695 0.506 2.435 0.816 c 1.474 0.618 3.145 1.319 4.974 1.319 s 3.5 -0.701 4.974 -1.319 c 0.787 -0.33 2.112 -0.896 2.504 -0.814 c 0.396 0.142 1.212 1.497 1.649 2.225 c 0.806 1.338 1.719 2.854 3.144 3.892 c 1.441 1.05 3.179 1.456 4.712 1.814 c 0.81 0.189 2.317 0.542 2.587 0.857 c 0.214 0.368 0.093 1.829 0.02 2.703 c -0.131 1.574 -0.279 3.358 0.275 5.067 c 0.538 1.655 1.688 2.978 2.701 4.144 c 0.568 0.654 1.626 1.871 1.626 2.312 s -1.059 1.658 -1.627 2.312 c -1.014 1.166 -2.162 2.488 -2.7 4.145 c -0.555 1.708 -0.406 3.492 -0.275 5.066 c 0.073 0.874 0.194 2.335 -0.013 2.693 c -0.276 0.325 -1.784 0.678 -2.595 0.867 c -1.532 0.358 -3.269 0.764 -4.71 1.812 c -1.427 1.038 -2.34 2.555 -3.145 3.893 c -0.438 0.728 -1.253 2.082 -1.633 2.221 c -0.431 0.062 -1.733 -0.479 -2.521 -0.81 c -1.474 -0.618 -3.144 -1.319 -4.973 -1.319 c -1.828 0 -3.499 0.701 -4.973 1.319 c -0.788 0.331 -2.121 0.903 -2.505 0.813 c -0.396 -0.142 -1.212 -1.497 -1.649 -2.225 c -0.806 -1.338 -1.719 -2.854 -3.145 -3.893 c -1.441 -1.049 -3.177 -1.454 -4.709 -1.812 c -0.811 -0.189 -2.319 -0.542 -2.589 -0.858 c -0.214 -0.368 -0.093 -1.829 -0.02 -2.703 c 0.131 -1.574 0.279 -3.358 -0.275 -5.067 c -0.538 -1.655 -1.687 -2.977 -2.7 -4.143 c -0.568 -0.654 -1.627 -1.872 -1.627 -2.312 s 1.059 -1.658 1.627 -2.312 c 1.014 -1.166 2.162 -2.488 2.7 -4.145 c 0.553 -1.708 0.405 -3.492 0.274 -5.066 Z m 36.098 57.499 L 99.796 162.07 l -16.713 12.779 v -24.616 c 0.457 0.134 0.848 0.281 1.074 0.445 c 0.432 0.314 1.032 1.312 1.515 2.114 c 1.084 1.801 2.434 4.042 4.975 4.868 c 2.462 0.802 4.828 -0.191 6.729 -0.989 c 0.945 -0.397 2.018 -0.847 2.625 -0.847 s 1.679 0.449 2.625 0.847 c 1.404 0.589 3.062 1.284 4.826 1.284 c 0.623 0 1.259 -0.086 1.9 -0.295 c 2.543 -0.825 3.893 -3.067 4.977 -4.868 c 0.482 -0.803 1.083 -1.801 1.514 -2.114 c 0.154 -0.112 0.39 -0.216 0.667 -0.314 v 24.485 Z m 32.739 -30.941 c 0 4.232 -3.442 7.675 -7.675 7.675 h -18.994 v -3.209 c 0.708 -0.428 1.366 -0.972 1.902 -1.709 c 1.543 -2.12 1.329 -4.698 1.156 -6.771 c -0.083 -1.004 -0.178 -2.143 0 -2.689 c 0.156 -0.48 0.906 -1.344 1.509 -2.037 c 1.388 -1.597 3.115 -3.585 3.115 -6.294 c 0 -2.71 -1.728 -4.697 -3.115 -6.294 c -0.603 -0.692 -1.353 -1.556 -1.509 -2.035 c -0.178 -0.548 -0.083 -1.687 0 -2.69 c 0.173 -2.072 0.387 -4.65 -1.156 -6.771 c -1.555 -2.136 -4.085 -2.728 -6.117 -3.202 c -0.972 -0.228 -2.072 -0.484 -2.521 -0.812 c -0.432 -0.314 -1.032 -1.312 -1.515 -2.114 c -1.084 -1.801 -2.434 -4.042 -4.976 -4.868 c -2.457 -0.798 -4.826 0.193 -6.727 0.99 c -0.946 0.397 -2.019 0.847 -2.626 0.847 s -1.68 -0.449 -2.625 -0.847 c -1.9 -0.798 -4.266 -1.788 -6.728 -0.99 c -2.542 0.826 -3.891 3.067 -4.975 4.868 c -0.483 0.803 -1.084 1.8 -1.515 2.114 c -0.448 0.326 -1.549 0.583 -2.52 0.811 c -2.034 0.475 -4.565 1.066 -6.12 3.203 c -1.543 2.12 -1.329 4.699 -1.156 6.771 c 0.083 1.004 0.178 2.143 0 2.689 c -0.156 0.48 -0.906 1.344 -1.509 2.037 c -1.388 1.597 -3.115 3.585 -3.115 6.294 c 0 2.71 1.728 4.697 3.116 6.295 c 0.603 0.692 1.352 1.555 1.508 2.034 c 0.178 0.548 0.083 1.687 0 2.69 c -0.173 2.072 -0.387 4.65 1.156 6.771 a 6.241 6.241 0 0 0 1.494 1.445 v 3.475 H 58.427 c -4.232 0 -7.675 -3.442 -7.675 -7.675 V 29.722 c 0 -4.232 3.442 -7.676 7.675 -7.676 h 83.146 c 4.232 0 7.675 3.443 7.675 7.676 v 114.186 Z" data-color="1" />
        <path fill="#253c57" d="M 127.155 41.902 v 2.207 H 72.846 v -2.207 h 54.309 Z" data-color="1" />
        <path fill="#253c57" d="M 127.155 59.654 v 2.207 H 72.846 v -2.207 h 54.309 Z" data-color="1" />
        <path fill="#253c57" d="M 127.155 77.405 v 2.207 H 72.846 v -2.207 h 54.309 Z" data-color="1" />
        <path fill="#253c57" d="M 96.572 138.554 l 0.435 -0.001 l 0.316 -0.284 c 0.08 -0.07 2.078 -1.877 14.051 -13.85 l -1.561 -1.561 c -8.452 8.452 -11.909 11.813 -13.242 13.088 l -1.055 -1.075 c -1.013 -1.034 -2.496 -2.551 -4.591 -4.645 l -1.561 1.561 c 2.087 2.087 3.565 3.598 4.573 4.628 c 2.091 2.136 2.091 2.136 2.635 2.139 Z" data-color="1" />
    </g>
</svg>