<svg xmlns="http://www.w3.org/2000/svg" role="img" viewBox="29.343 36.603 141.314 126.796" preserveAspectRatio="xMidYMid meet" width="200" height="200" data-type="color" data-bbox="29.343 36.603 141.314 126.796">
    <g>
        <path fill="#253c57" d="M 164.633 44.383 a 23.521 23.521 0 0 0 -17.463 -7.78 H 52.829 a 23.525 23.525 0 0 0 -17.463 7.78 a 23.525 23.525 0 0 0 -5.899 18.136 l 5.781 79.771 l 0.009 0.101 a 23.44 23.44 0 0 0 23.356 21.008 h 82.773 a 23.44 23.44 0 0 0 23.356 -21.008 l 5.79 -79.871 a 23.516 23.516 0 0 0 -5.899 -18.137 Z m -0.099 17.551 l -5.79 79.867 a 17.425 17.425 0 0 1 -17.357 15.569 H 58.613 a 17.425 17.425 0 0 1 -17.357 -15.568 l -5.781 -79.768 l -0.009 -0.101 c -0.522 -4.916 1.075 -9.844 4.381 -13.52 s 8.038 -5.784 12.981 -5.784 h 94.342 c 4.943 0 9.675 2.108 12.981 5.783 a 17.49 17.49 0 0 1 4.383 13.522 Z" data-color="1" />
        <path fill="#253c57" d="M 99.961 52.147 c -22.951 0 -41.624 18.673 -41.624 41.624 c 0 0.902 0.365 3.003 3.745 3.023 l 2.139 0.009 c 1.84 0.005 4.479 0.009 7.675 0.013 a 35623.6 35623.6 0 0 0 53.021 -0.002 c 4.059 -0.003 7.475 -0.008 9.875 -0.013 l 2.8 -0.008 c 2.649 -0.012 3.993 -1.028 3.993 -3.022 c 0 -22.951 -18.673 -41.624 -41.624 -41.624 Z m 1.095 38.648 V 73.518 h -2.191 v 17.278 c -14.284 0 -28.363 -0.006 -34.375 -0.02 a 35.318 35.318 0 0 1 2.126 -9.45 l 8.681 3.901 l 0.525 -1.169 l -8.732 -3.924 a 35.567 35.567 0 0 1 4.621 -7.987 l 7.554 6.504 l 0.837 -0.972 l -7.596 -6.54 a 35.882 35.882 0 0 1 6.839 -6.364 l 5.599 8.689 l 1.078 -0.694 l -5.617 -8.718 a 35.49 35.49 0 0 1 8.505 -4.111 l 2.948 10.169 l 1.232 -0.357 l -2.954 -10.193 a 35.514 35.514 0 0 1 9.455 -1.375 l -0.173 10.683 l 1.282 0.021 l 0.174 -10.691 a 35.42 35.42 0 0 1 9.31 1.478 l -3.093 10.167 l 1.227 0.373 l 3.088 -10.149 a 35.453 35.453 0 0 1 8.451 4.212 l -5.745 8.671 l 1.069 0.708 l 5.724 -8.641 a 35.889 35.889 0 0 1 6.769 6.45 l -7.705 6.466 l 0.824 0.982 l 7.673 -6.438 a 35.606 35.606 0 0 1 4.532 8.064 l -8.83 3.831 l 0.51 1.176 l 8.776 -3.807 a 35.303 35.303 0 0 1 1.978 9.034 c -6.038 0.012 -20.109 0.019 -34.376 0.02 Z" data-color="1" />
    </g>
</svg>