<svg xmlns="http://www.w3.org/2000/svg" role="img" viewBox="29.76 40.676 140.477 118.648" preserveAspectRatio="xMidYMid meet" width="200" height="200" data-type="color" data-bbox="29.76 40.676 140.477 118.648">
    <g>
        <path fill="#253c57" d="M 157.586 49.722 h -1.333 V 43.47 a 2.794 2.794 0 0 0 -5.588 0 v 6.252 h -4.021 V 43.47 a 2.794 2.794 0 0 0 -5.588 0 v 6.252 H 58.944 V 43.47 a 2.794 2.794 0 0 0 -5.588 0 v 6.252 h -4.022 V 43.47 a 2.794 2.794 0 0 0 -5.588 0 v 6.252 h -1.332 c -6.978 0 -12.654 5.676 -12.654 12.654 v 84.294 c 0 6.978 5.676 12.654 12.654 12.654 h 115.17 c 6.977 0 12.653 -5.676 12.653 -12.654 V 62.376 c 0.002 -6.978 -5.674 -12.654 -12.651 -12.654 Z M 42.415 55.309 h 115.17 c 3.896 0 7.066 3.17 7.066 7.067 v 9.973 H 35.349 v -9.973 c 0 -3.897 3.17 -7.067 7.066 -7.067 Z m 115.171 98.428 H 42.415 a 7.075 7.075 0 0 1 -7.067 -7.067 V 77.936 h 129.303 v 68.734 c 0 3.896 -3.17 7.067 -7.065 7.067 Z" data-color="1" />
        <path fill="#253c57" d="M 131.83 109.602 l 4.393 5.504 H 63.766 l 4.394 -5.504 l -1.589 -1.268 l -6.218 7.793 l 6.229 7.806 l 1.588 -1.268 l -4.412 -5.527 h 72.494 l -4.412 5.527 l 1.589 1.268 l 6.22 -7.793 l -6.231 -7.806 l -1.588 1.268 Z" data-color="1" />
    </g>
</svg>