<svg xmlns="http://www.w3.org/2000/svg" role="img" viewBox="27.015 20.94 145.968 158.12" preserveAspectRatio="xMidYMid meet" width="200" height="200" data-type="color" data-bbox="27.015 20.94 145.968 158.12">
    <g>
        <path fill="#253c57" d="M 169.425 93.947 c -5.775 0.321 -16.166 3.752 -22.432 13.729 c -4.943 -4.708 -12.382 -8.025 -20.357 -8.916 c -7.232 -0.807 -14.152 0.403 -20.131 3.423 c 1.268 -7.269 1.73 -14.903 2.152 -21.93 c 0.611 -10.191 1.191 -19.86 3.891 -25.25 c 0.86 -0.1 2.146 -0.241 3.894 -0.426 c 0.08 3.101 0.79 10.63 5.648 14.605 c 1.944 1.59 5.357 3.226 10.575 1.984 c 10.251 -2.44 16.311 -16.078 19.588 -27.088 c 1.311 -4.402 -0.595 -9.064 -4.633 -11.338 c -10.091 -5.683 -21.939 -9.575 -35.216 -11.569 l -0.531 -0.08 c -6.038 -0.932 -8.067 2.511 -11.751 8.757 l -0.417 0.708 c -0.812 1.374 -3.319 3.405 -6.223 5.756 c -8.479 6.867 -22.67 18.359 -32.916 42.639 c -12.444 29.486 -13.716 54.185 -13.836 60.101 c -1.562 1.892 -4.579 6.034 -5.393 10.647 c -1.107 6.278 3.016 9.232 6.329 11.605 c 0.69 0.494 1.417 1.014 2.152 1.592 c 4.195 3.297 10.35 2.571 13.51 1.89 c 15.482 10.32 31.864 14.274 46.773 14.274 c 19.384 0 36.276 -6.689 45.444 -14.778 a 3.371 3.371 0 1 0 -4.462 -5.057 c -14.748 13.014 -51.867 21.848 -84.701 -0.513 c -1.109 -0.757 -2.516 -0.997 -3.861 -0.661 c -2.785 0.695 -6.691 0.993 -8.536 -0.458 a 65.295 65.295 0 0 0 -2.392 -1.771 c -3.5 -2.508 -3.94 -3.109 -3.615 -4.951 c 0.594 -3.364 3.505 -7.093 4.572 -8.241 l 0.925 -0.988 l -0.013 -1.353 c -0.002 -0.266 -0.102 -26.92 13.317 -58.716 c 9.59 -22.724 22.442 -33.132 30.947 -40.02 c 3.689 -2.988 6.355 -5.146 7.785 -7.566 l 0.42 -0.712 c 3.394 -5.754 3.481 -5.74 4.917 -5.519 l 0.555 0.084 c 12.463 1.872 23.535 5.498 32.909 10.776 c 1.277 0.719 1.885 2.174 1.479 3.538 c -3.803 12.775 -9.294 21.169 -14.687 22.453 c -3.061 0.728 -4.321 -0.3 -4.736 -0.637 c -2.42 -1.972 -3.084 -6.893 -3.178 -9.459 l 2.376 1.286 a 3.372 3.372 0 1 0 3.211 -5.931 l -3.116 -1.687 l -0.098 -0.051 a 8.057 8.057 0 0 0 -4.436 -0.813 c -12.534 1.272 -12.534 1.272 -13.486 2.717 c -4.319 6.542 -4.966 17.329 -5.715 29.819 c -1.13 18.819 -2.409 40.149 -17.474 46.175 a 3.373 3.373 0 1 0 2.505 6.262 c 9.201 -3.68 14.293 -11.341 17.24 -20.504 c 0.018 -0.015 0.038 -0.024 0.055 -0.039 c 5.725 -4.971 13.41 -7.201 21.635 -6.281 c 7.414 0.828 14.388 4.249 17.999 8.772 a 35.864 35.864 0 0 0 -1.11 3.933 a 3.374 3.374 0 0 0 3.296 4.1 a 3.377 3.377 0 0 0 3.29 -2.646 a 23.161 23.161 0 0 1 20.448 -18.941 a 3.372 3.372 0 0 0 3.168 -3.553 a 3.371 3.371 0 0 0 -3.553 -3.182 Z" data-color="1" />
        <path fill="#253c57" d="M 136.658 142.277 c -3.13 3.867 -9.5 6.635 -16.622 7.225 c -8.386 0.688 -16.34 -1.701 -21.833 -6.569 a 3.373 3.373 0 0 0 -4.473 5.047 c 6.102 5.408 14.518 8.383 23.483 8.383 a 40.82 40.82 0 0 0 3.378 -0.14 c 9.029 -0.747 16.994 -4.374 21.307 -9.701 a 3.373 3.373 0 0 0 -5.24 -4.245 Z" data-color="1" />
        <path fill="#253c57" d="M 27.31 92.922 l 16.424 2.925 l -0.295 1.662 l -16.424 -2.925 l 0.296 -1.662 Z" data-color="1" />
        <path fill="#253c57" d="M 30.189 80.513 l 16.087 4.416 l -0.447 1.627 l -16.087 -4.416 l 0.447 -1.627 Z" data-color="1" />
        <path fill="#253c57" d="M 34.226 68.39 l 15.598 5.917 l -0.6 1.578 l -15.597 -5.917 l 0.6 -1.578 Z" data-color="1" />
        <path fill="#253c57" d="M 39.463 56.644 l 14.914 7.473 l -0.756 1.51 l -14.914 -7.474 l 0.756 -1.51 Z" data-color="1" />
    </g>
</svg>