<?xml version="1.0" encoding="UTF-8" standalone="no"?>
<!-- Created with Inkscape (http://www.inkscape.org/) -->

<svg
   xmlns:dc="http://purl.org/dc/elements/1.1/"
   xmlns:cc="http://creativecommons.org/ns#"
   xmlns:rdf="http://www.w3.org/1999/02/22-rdf-syntax-ns#"
   xmlns:svg="http://www.w3.org/2000/svg"
   xmlns="http://www.w3.org/2000/svg"
   xmlns:sodipodi="http://sodipodi.sourceforge.net/DTD/sodipodi-0.dtd"
   xmlns:inkscape="http://www.inkscape.org/namespaces/inkscape"
   version="1.1"
   id="svg815"
   width="80"
   height="80"
   viewBox="0 0 80 80"
   sodipodi:docname="instagram.svg"
   inkscape:version="0.92.4 (5da689c313, 2019-01-14)">
  <metadata
     id="metadata821">
    <rdf:RDF>
      <cc:Work
         rdf:about="">
        <dc:format>image/svg+xml</dc:format>
        <dc:type
           rdf:resource="http://purl.org/dc/dcmitype/StillImage" />
        <dc:title></dc:title>
      </cc:Work>
    </rdf:RDF>
  </metadata>
  <defs
     id="defs819" />
  <sodipodi:namedview
     pagecolor="#ffffff"
     bordercolor="#666666"
     borderopacity="1"
     objecttolerance="10"
     gridtolerance="10"
     guidetolerance="10"
     inkscape:pageopacity="0"
     inkscape:pageshadow="2"
     inkscape:window-width="1920"
     inkscape:window-height="1018"
     id="namedview817"
     showgrid="false"
     inkscape:zoom="1.6582031"
     inkscape:cx="256"
     inkscape:cy="256"
     inkscape:window-x="-8"
     inkscape:window-y="-8"
     inkscape:window-maximized="1"
     inkscape:current-layer="svg815" />
  <g
     id="g956"
     transform="scale(0.15625)">
    <circle
       r="256"
       cy="256"
       cx="256"
       id="path946"
       style="fill:#000000;fill-opacity:1;stroke:none;stroke-width:1;stroke-linecap:butt;stroke-linejoin:miter;stroke-miterlimit:4;stroke-dasharray:none;stroke-opacity:1;paint-order:normal" />
    <g
       id="g944">
      <g
         id="g920"
         style="fill:#ffffff;fill-opacity:1;stroke:none">
        <path
           sodipodi:nodetypes="zzzzzzzzz"
           inkscape:connector-curvature="0"
           id="path827-4-2"
           d="M 378.50176,379.13546 C 348.66399,408.97323 297.63042,403.449 256,403.449 c -41.63042,0 -92.66399,5.52423 -122.50177,-24.31354 C 103.66046,349.29768 109.154,297.83962 109.154,256 c 0,-41.83962 -5.49354,-93.29768 24.34423,-123.13546 C 163.33601,103.02677 214.36958,108.551 256,108.551 c 41.63042,0 92.66399,-5.52423 122.50176,24.31354 C 408.33955,162.70232 402.846,214.16038 402.846,256 c 0,41.83962 5.49355,93.29768 -24.34424,123.13546 z"
           style="fill:#ffffff;fill-opacity:1;stroke:none;stroke-width:1px;stroke-linecap:butt;stroke-linejoin:miter;stroke-opacity:1" />
      </g>
      <path
         style="fill:#000000;fill-opacity:1;stroke:none;stroke-width:0.81703967px;stroke-linecap:butt;stroke-linejoin:miter;stroke-opacity:1"
         d="M 359.74214,152.52445 C 340.188,132.9703 305.7283,135.67462 256.03498,135.67462 c -49.69332,0 -84.15302,-2.70432 -103.70716,16.84983 -19.55414,19.55415 -16.87491,60.3913 -16.87491,103.62187 0,43.23058 -2.67923,84.06773 16.87491,103.62187 19.55414,19.55415 54.01384,16.84983 103.70716,16.84983 49.69332,0 84.15302,2.70432 103.70716,-16.84983 19.55414,-19.55414 16.87491,-60.39129 16.87491,-103.62187 0,-43.23057 2.67923,-84.06772 -16.87491,-103.62187 z"
         id="path827-4-2-2-0"
         inkscape:connector-curvature="0"
         sodipodi:nodetypes="zczczczcz" />
      <g
         id="g936">
        <ellipse
           ry="62.586704"
           rx="61.92308"
           cy="256.2294"
           cx="256.16879"
           id="path922"
           style="fill:none;fill-opacity:1;stroke:#ffffff;stroke-width:27.38436508;stroke-linecap:butt;stroke-linejoin:miter;stroke-miterlimit:4;stroke-dasharray:none;stroke-opacity:1;paint-order:normal" />
        <circle
           r="17.79034"
           cy="177.6019"
           cx="335.00119"
           id="path926"
           style="fill:#ffffff;fill-opacity:1;stroke:none;stroke-width:1.13461542;stroke-linecap:butt;stroke-linejoin:miter;stroke-miterlimit:4;stroke-dasharray:none;stroke-opacity:1;paint-order:normal" />
      </g>
    </g>
  </g>
</svg>
