<?xml version="1.0" encoding="UTF-8" standalone="no"?>
<!-- Generator: Adobe Illustrator 23.0.3, SVG Export Plug-In . SVG Version: 6.00 Build 0)  -->

<svg
   xmlns:dc="http://purl.org/dc/elements/1.1/"
   xmlns:cc="http://creativecommons.org/ns#"
   xmlns:rdf="http://www.w3.org/1999/02/22-rdf-syntax-ns#"
   xmlns:svg="http://www.w3.org/2000/svg"
   xmlns="http://www.w3.org/2000/svg"
   xmlns:sodipodi="http://sodipodi.sourceforge.net/DTD/sodipodi-0.dtd"
   xmlns:inkscape="http://www.inkscape.org/namespaces/inkscape"
   version="1.1"
   x="0px"
   y="0px"
   viewBox="0 0 100 100"
   xml:space="preserve"
   id="svg1155"
   sodipodi:docname="qmassage-logo.svg"
   width="100"
   height="100"
   inkscape:version="0.92.4 (5da689c313, 2019-01-14)"><metadata
   id="metadata1161"><rdf:RDF><cc:Work
       rdf:about=""><dc:format>image/svg+xml</dc:format><dc:type
         rdf:resource="http://purl.org/dc/dcmitype/StillImage" /><dc:title /></cc:Work></rdf:RDF></metadata><defs
   id="defs1159">
	<linearGradient
   y2="383.01651"
   x2="412.58469"
   y1="383.01651"
   x1="412.58469"
   gradientUnits="userSpaceOnUse"
   id="SVGID_2_"
   gradientTransform="translate(0,-400)">
		<stop
   id="stop12"
   style="stop-color:#EE2A7B"
   offset="0" />
		<stop
   id="stop14"
   style="stop-color:#FBB040"
   offset="1" />
	</linearGradient>
	
	<linearGradient
   y2="383.01651"
   x2="412.58469"
   y1="383.01651"
   x1="412.58469"
   gradientUnits="userSpaceOnUse"
   id="SVGID_3_"
   gradientTransform="translate(0,-400)">
		<stop
   id="stop19"
   style="stop-color:#EE2A7B"
   offset="0" />
		<stop
   id="stop21"
   style="stop-color:#FBB040"
   offset="1" />
	</linearGradient>
	
	
	
	
	
	
	
	

		
		
	
			
			
		
</defs><sodipodi:namedview
   pagecolor="#ffffff"
   bordercolor="#666666"
   borderopacity="1"
   objecttolerance="10"
   gridtolerance="10"
   guidetolerance="10"
   inkscape:pageopacity="0"
   inkscape:pageshadow="2"
   inkscape:window-width="1920"
   inkscape:window-height="1018"
   id="namedview1157"
   showgrid="false"
   inkscape:zoom="2.6700352"
   inkscape:cx="185.78358"
   inkscape:cy="63.863428"
   inkscape:window-x="-8"
   inkscape:window-y="-8"
   inkscape:window-maximized="1"
   inkscape:current-layer="svg1155" />
<style
   type="text/css"
   id="style2">
	.st0{fill:url(#SVGID_1_);}
	.st1{opacity:0.8;fill:none;stroke:url(#SVGID_2_);stroke-miterlimit:10;}
	.st2{opacity:0.8;fill:none;stroke:url(#SVGID_3_);stroke-miterlimit:10;}
	.st3{fill:#F5755A;}
	.st4{font-family:'GreatVibes-Regular';}
	.st5{font-size:32.2081px;}
	.st6{fill:#808285;}
	.st7{font-family:'OpenSans-Regular';}
	.st8{font-size:6.857px;}
	.st9{fill:url(#SVGID_4_);}
	.st10{fill:url(#SVGID_5_);}
	.st11{opacity:0.8;fill:url(#SVGID_6_);}
	.st12{opacity:0.8;fill:url(#SVGID_7_);}
	.st13{opacity:0.8;fill:url(#SVGID_8_);}
	.st14{opacity:0.8;fill:url(#SVGID_9_);}
	.st15{fill:url(#SVGID_10_);}
	.st16{fill:url(#SVGID_11_);}
	.st17{fill:url(#SVGID_12_);}
	.st18{fill:url(#SVGID_13_);}
	.st19{fill:url(#SVGID_14_);}
	.st20{fill:url(#SVGID_15_);}
	.st21{fill:url(#SVGID_16_);}
	.st22{fill:url(#SVGID_17_);}
	.st23{fill:url(#SVGID_18_);}
	.st24{fill:url(#SVGID_19_);}
	.st25{fill:url(#SVGID_20_);}
	.st26{fill:url(#SVGID_21_);}
	.st27{fill:#0193B0;}
	.st28{font-family:'OpenSans-Semibold';}
	.st29{font-size:16.8878px;}
	.st30{font-size:6.464px;}
	.st31{opacity:0.8;}
	.st32{fill:url(#SVGID_22_);}
	.st33{fill:url(#SVGID_23_);}
	.st34{fill:url(#SVGID_24_);}
	.st35{fill:url(#SVGID_25_);}
	.st36{fill:url(#SVGID_26_);}
	.st37{fill:url(#SVGID_27_);}
	.st38{fill:url(#SVGID_28_);}
	.st39{fill:url(#SVGID_29_);}
	.st40{fill:url(#SVGID_30_);}
	.st41{fill:url(#SVGID_31_);}
	.st42{fill:url(#SVGID_32_);}
	.st43{fill:url(#SVGID_33_);}
	.st44{fill:url(#SVGID_34_);}
	.st45{fill:url(#SVGID_35_);}
	.st46{fill:url(#SVGID_36_);}
	.st47{fill:#A149A1;}
	.st48{font-size:30.7396px;}
	.st49{font-size:6.5444px;}
	.st50{fill:url(#SVGID_37_);}
	.st51{fill:url(#SVGID_38_);}
	.st52{fill:url(#SVGID_39_);}
	.st53{fill:url(#SVGID_40_);}
	.st54{fill:url(#SVGID_41_);}
	.st55{fill:url(#SVGID_42_);}
	.st56{fill:url(#SVGID_43_);}
	.st57{fill:url(#SVGID_44_);}
	.st58{fill:url(#SVGID_45_);}
	.st59{fill:url(#SVGID_46_);}
	.st60{fill:url(#SVGID_47_);}
	.st61{fill:url(#SVGID_48_);}
	.st62{fill:url(#SVGID_49_);}
	.st63{fill:url(#SVGID_50_);}
	.st64{fill:url(#SVGID_51_);}
	.st65{fill:url(#SVGID_52_);}
	.st66{fill:url(#SVGID_53_);}
	.st67{fill:url(#SVGID_54_);}
	.st68{fill:url(#SVGID_55_);}
	.st69{fill:url(#SVGID_56_);}
	.st70{fill:url(#SVGID_57_);}
	.st71{fill:url(#SVGID_58_);}
	.st72{fill:url(#SVGID_59_);}
	.st73{fill:url(#SVGID_60_);}
	.st74{fill:url(#SVGID_61_);}
	.st75{fill:url(#SVGID_62_);}
	.st76{fill:url(#SVGID_63_);}
	.st77{fill:url(#SVGID_64_);}
	.st78{fill:url(#SVGID_65_);}
	.st79{fill:url(#SVGID_66_);}
	.st80{fill:url(#SVGID_67_);}
	.st81{fill:url(#SVGID_68_);}
	.st82{fill:url(#SVGID_69_);}
	.st83{fill:url(#SVGID_70_);}
	.st84{fill:url(#SVGID_71_);}
	.st85{fill:url(#SVGID_72_);}
	.st86{fill:url(#SVGID_73_);}
	.st87{fill:url(#SVGID_74_);}
	.st88{fill:url(#SVGID_75_);}
	.st89{fill:url(#SVGID_76_);}
	.st90{fill:url(#SVGID_77_);}
	.st91{fill:url(#SVGID_78_);}
	.st92{fill:url(#SVGID_79_);}
	.st93{fill:url(#SVGID_80_);}
	.st94{fill:url(#SVGID_81_);}
	.st95{fill:url(#SVGID_82_);}
	.st96{fill:url(#SVGID_83_);}
	.st97{fill:url(#SVGID_84_);}
	.st98{fill:url(#SVGID_85_);}
	.st99{fill:url(#SVGID_86_);}
	.st100{fill:url(#SVGID_87_);}
	.st101{fill:url(#SVGID_88_);}
	.st102{fill:url(#SVGID_89_);}
	.st103{fill:url(#SVGID_90_);}
	.st104{fill:url(#SVGID_91_);}
	.st105{fill:url(#SVGID_92_);}
	.st106{fill:url(#SVGID_93_);}
	.st107{fill:url(#SVGID_94_);}
	.st108{fill:url(#SVGID_95_);}
	.st109{fill:url(#SVGID_96_);}
	.st110{fill:url(#SVGID_97_);}
	.st111{fill:url(#SVGID_98_);}
	.st112{fill:url(#SVGID_99_);}
	.st113{fill:url(#SVGID_100_);}
	.st114{fill:url(#SVGID_101_);}
	.st115{fill:url(#SVGID_102_);}
	.st116{fill:url(#SVGID_103_);}
	.st117{fill:url(#SVGID_104_);}
	.st118{fill:url(#SVGID_105_);}
	.st119{fill:url(#SVGID_106_);}
	.st120{fill:url(#SVGID_107_);}
	.st121{fill:url(#SVGID_108_);}
	.st122{fill:url(#SVGID_109_);}
	.st123{fill:url(#SVGID_110_);}
	.st124{fill:url(#SVGID_111_);}
	.st125{fill:url(#SVGID_112_);}
	.st126{fill:url(#SVGID_113_);}
	.st127{fill:url(#SVGID_114_);}
	.st128{fill:url(#SVGID_115_);}
	.st129{fill:url(#SVGID_116_);}
	.st130{fill:url(#SVGID_117_);}
	.st131{fill:url(#SVGID_118_);}
	.st132{fill:url(#SVGID_119_);}
	.st133{fill:url(#SVGID_120_);}
	.st134{fill:url(#SVGID_121_);}
	.st135{fill:url(#SVGID_122_);}
	.st136{fill:url(#SVGID_123_);}
	.st137{fill:url(#SVGID_124_);}
	.st138{fill:url(#SVGID_125_);}
	.st139{fill:url(#SVGID_126_);}
	.st140{fill:url(#SVGID_127_);}
	.st141{fill:url(#SVGID_128_);}
	.st142{fill:url(#SVGID_129_);}
	.st143{font-size:18.6164px;}
	.st144{font-size:7.8366px;}
	.st145{fill:url(#SVGID_130_);}
	.st146{fill:url(#SVGID_131_);}
	.st147{fill:url(#SVGID_132_);}
	.st148{fill:url(#SVGID_133_);}
	.st149{fill:url(#SVGID_134_);}
	.st150{fill:#01749B;}
	.st151{font-size:27.1398px;}
	.st152{font-size:6.6459px;}
	.st153{fill:url(#SVGID_135_);}
	.st154{fill:url(#SVGID_136_);}
	.st155{fill:#FFFFFF;}
	.st156{fill:#F38424;}
	.st157{font-size:17.7669px;}
	.st158{font-size:7.479px;}
	.st159{fill:#757475;}
</style>

<path
   inkscape:connector-curvature="0"
   style="opacity:0.8;fill:none;stroke:url(#SVGID_2_);stroke-miterlimit:10"
   id="path17"
   d="M 412.58,-16.98"
   class="st1" /><path
   inkscape:connector-curvature="0"
   style="opacity:0.8;fill:none;stroke:url(#SVGID_3_);stroke-miterlimit:10"
   id="path24"
   d="M 412.58,-16.98"
   class="st2" /><g
   id="g927"><g
     id="text26"
     style="font-size:32.58862305px;font-family:GreatVibes-Regular;fill:#f5755a;stroke-width:1.01181459"
     transform="scale(0.97979914,1.0206173)"
     aria-label="Q Massage"><path
       id="path876"
       style="font-style:normal;font-variant:normal;font-weight:normal;font-stretch:normal;font-size:18.88720512px;font-family:STLiti;-inkscape-font-specification:STLiti;stroke-width:1.01181459"
       d="m 19.95714,93.258112 2.22869,2.153141 q 1.038797,1.001022 1.6243,1.359879 0.585503,0.358857 0.94436,0.47218 0.377744,0.113323 0.736601,0.113323 0.377744,0 0.67994,-0.113323 0.321082,-0.113323 0.491067,-0.283308 0.169985,-0.151097 0.396631,-0.60439 0.245534,-0.472181 0.623278,-0.472181 0.169985,0 0.302195,0.132211 0.151098,0.151098 0.151098,0.33997 0,0.528841 -0.963247,1.07657 -0.944361,0.547729 -2.304239,0.547729 -1.001022,0 -1.945383,-0.415518 -0.925473,-0.396632 -2.70087,-2.22869 -1.246555,-1.28433 -1.662074,-1.605413 -0.415518,-0.302195 -1.227668,-0.623278 -1.340992,-0.509954 -2.002044,-1.586525 -0.642165,-1.095458 -0.642165,-2.455337 0,-2.474223 1.718736,-4.740688 1.718735,-2.266465 4.476267,-2.266465 1.983157,0 3.097502,1.246556 1.133232,1.227668 1.133232,3.154163 0,2.153142 -1.435427,4.268508 -1.416541,2.115367 -3.72078,2.530886 z m 3.456359,-6.516086 q 0,-1.813171 -0.849924,-2.908629 -0.849925,-1.095458 -2.190916,-1.095458 -1.75651,0 -2.889743,1.605412 -1.114345,1.605413 -1.114345,4.098524 0,2.039818 0.887699,3.154163 0.887699,1.095458 2.247577,1.095458 1.643187,0 2.776419,-1.662074 1.133233,-1.662074 1.133233,-4.287396 z" /><path
       id="path878"
       style="font-style:normal;font-variant:normal;font-weight:normal;font-stretch:normal;font-size:18.88720512px;font-family:STLiti;-inkscape-font-specification:STLiti;stroke-width:1.01181459"
       d="m 37.593068,93.484758 -0.736601,-9.934669 q -0.264421,2.946404 -1.133233,5.439515 -0.849924,2.474223 -2.039818,3.607456 -1.189894,1.133232 -2.530885,1.133232 -0.528842,0 -0.81215,-0.207759 -0.264421,-0.188872 -0.264421,-0.491067 0,-0.245534 0.188872,-0.434406 0.188872,-0.188872 0.566616,-0.188872 0.264421,0 0.585504,0.09444 0.339969,0.113323 0.623277,0.113323 0.887699,0 1.813172,-1.246556 0.925473,-1.246555 1.605413,-3.739666 0.679939,-2.511998 0.812149,-4.854012 -1.057683,0 -2.077592,0.321083 -1.001022,0.321082 -1.680961,1.057683 -0.67994,0.736601 -0.67994,1.435428 0,0.585503 0.509955,1.171006 0.264421,0.283308 0.264421,0.585504 0,0.226646 -0.169985,0.377744 -0.151098,0.13221 -0.33997,0.13221 -0.377744,0 -0.698827,-0.491067 -0.321082,-0.491067 -0.321082,-1.171007 0,-0.94436 0.604391,-1.907607 0.623277,-0.963248 1.88872,-1.510977 1.265443,-0.566616 3.097502,-0.60439 0.963247,0 1.435427,-0.151098 -0.01889,0.925473 0,1.265443 l 0.547729,7.007153 q 1.869834,-3.305261 3.758554,-5.666162 1.888721,-2.379788 3.210825,-3.135276 -0.642165,1.737623 -1.359879,4.627365 l -1.605412,6.497199 q 0.717713,0.151098 1.28433,0.151098 0.47218,0 1.001022,-0.09444 l -0.113324,0.528841 q -0.415518,0.07555 -0.793262,0.07555 -0.33997,0 -1.019909,-0.07555 -0.736601,-0.07555 -1.038797,-0.07555 -0.453293,0 -1.095458,0.188872 0.434406,-1.133233 1.057684,-3.569682 l 0.717714,-2.833081 q 0.415518,-1.775397 0.774375,-2.493111 -0.33997,0.377744 -0.868811,1.095458 -0.528842,0.717714 -1.189894,1.680961 -0.642165,0.94436 -1.057684,1.605413 -0.415518,0.642165 -0.906586,1.510976 z" /><path
       id="path880"
       style="font-style:normal;font-variant:normal;font-weight:normal;font-stretch:normal;font-size:18.88720512px;font-family:STLiti;-inkscape-font-specification:STLiti;stroke-width:1.01181459"
       d="m 52.454347,85.174388 0.60439,-0.13221 -0.679939,2.342013 q -0.377744,1.246556 -0.698827,2.700871 -0.302195,1.435427 -0.302195,1.813171 0,0.245534 0.207759,0.245534 0.245534,0 0.717714,-0.321083 0.47218,-0.321082 0.887699,-0.717713 l 0.283308,0.358856 q -1.907608,1.888721 -3.154163,1.888721 -0.472181,0 -0.472181,-0.396631 0,-0.169985 0.07555,-0.415519 l 0.358857,-1.246555 q -0.81215,0.963247 -1.643187,1.510976 -0.831037,0.547729 -1.473202,0.547729 -0.585503,0 -0.906586,-0.453293 -0.302195,-0.453293 -0.302195,-1.265443 0,-0.774375 0.321083,-1.699848 0.339969,-0.94436 0.982134,-1.869833 0.661052,-0.944361 1.378766,-1.529864 0.736601,-0.585503 1.416541,-0.81215 0.698826,-0.226646 1.54875,-0.226646 0.302196,0 0.623278,0.03777 z m -1.15212,1.416541 q -0.453293,-0.09444 -0.849924,-0.09444 -1.510976,0 -2.323126,1.54875 -0.793263,1.548751 -0.793263,2.90863 0,1.171007 0.774376,1.171007 0.661052,0 1.378766,-0.698827 0.717713,-0.698827 1.057683,-1.964269 z" /><path
       id="path882"
       style="font-style:normal;font-variant:normal;font-weight:normal;font-stretch:normal;font-size:18.88720512px;font-family:STLiti;-inkscape-font-specification:STLiti;stroke-width:1.01181459"
       d="m 55.56926,87.59195 q 0,-0.925473 0.736601,-1.586525 0.736601,-0.679939 1.832059,-0.679939 0.774375,0 1.246555,0.302195 0.47218,0.302195 0.47218,0.736601 0,0.245534 -0.188872,0.434406 -0.188872,0.188872 -0.434405,0.188872 -0.377744,0 -0.698827,-0.47218 -0.396631,-0.585504 -0.887699,-0.585504 -0.377744,0 -0.679939,0.302196 -0.283308,0.283308 -0.283308,0.774375 0,0.396631 0.264421,0.793263 0.264421,0.396631 0.849924,1.019909 1.038796,1.095458 1.038796,2.058705 0,0.982135 -0.849924,1.737623 -0.849924,0.736601 -2.134254,0.736601 -1.057684,0 -1.6243,-0.453293 -0.547729,-0.47218 -0.547729,-1.114345 0,-0.321083 0.20776,-0.528842 0.207759,-0.226646 0.509954,-0.226646 0.264421,0 0.434406,0.188872 0.188872,0.169985 0.188872,0.434406 0,0.09444 -0.01889,0.188872 -0.01889,0.09444 -0.01889,0.188872 0,0.302195 0.245534,0.528841 0.264421,0.20776 0.774376,0.20776 0.774375,0 1.189893,-0.415519 0.415519,-0.415518 0.415519,-1.001022 0,-0.283308 -0.207759,-0.60439 -0.20776,-0.33997 -0.868812,-1.114345 Q 55.56926,88.574085 55.56926,87.59195 Z" /><path
       id="path884"
       style="font-style:normal;font-variant:normal;font-weight:normal;font-stretch:normal;font-size:18.88720512px;font-family:STLiti;-inkscape-font-specification:STLiti;stroke-width:1.01181459"
       d="m 61.619068,87.59195 q 0,-0.925473 0.736601,-1.586525 0.736601,-0.679939 1.832059,-0.679939 0.774376,0 1.246556,0.302195 0.47218,0.302195 0.47218,0.736601 0,0.245534 -0.188872,0.434406 -0.188872,0.188872 -0.434406,0.188872 -0.377744,0 -0.698826,-0.47218 -0.396632,-0.585504 -0.887699,-0.585504 -0.377744,0 -0.679939,0.302196 -0.283309,0.283308 -0.283309,0.774375 0,0.396631 0.264421,0.793263 0.264421,0.396631 0.849925,1.019909 1.038796,1.095458 1.038796,2.058705 0,0.982135 -0.849924,1.737623 -0.849925,0.736601 -2.134255,0.736601 -1.057683,0 -1.624299,-0.453293 -0.547729,-0.47218 -0.547729,-1.114345 0,-0.321083 0.207759,-0.528842 0.207759,-0.226646 0.509955,-0.226646 0.264421,0 0.434405,0.188872 0.188872,0.169985 0.188872,0.434406 0,0.09444 -0.01889,0.188872 -0.01889,0.09444 -0.01889,0.188872 0,0.302195 0.245534,0.528841 0.264421,0.20776 0.774375,0.20776 0.774375,0 1.189894,-0.415519 0.415518,-0.415518 0.415518,-1.001022 0,-0.283308 -0.207759,-0.60439 -0.207759,-0.33997 -0.868811,-1.114345 -0.963248,-1.057684 -0.963248,-2.039819 z" /><path
       id="path886"
       style="font-style:normal;font-variant:normal;font-weight:normal;font-stretch:normal;font-size:18.88720512px;font-family:STLiti;-inkscape-font-specification:STLiti;stroke-width:1.01181459"
       d="m 72.485114,85.174388 0.604391,-0.13221 -0.67994,2.342013 q -0.377744,1.246556 -0.698826,2.700871 -0.302196,1.435427 -0.302196,1.813171 0,0.245534 0.20776,0.245534 0.245533,0 0.717714,-0.321083 0.47218,-0.321082 0.887698,-0.717713 l 0.283308,0.358856 q -1.907607,1.888721 -3.154163,1.888721 -0.47218,0 -0.47218,-0.396631 0,-0.169985 0.07555,-0.415519 l 0.358857,-1.246555 q -0.81215,0.963247 -1.643187,1.510976 -0.831037,0.547729 -1.473202,0.547729 -0.585504,0 -0.906586,-0.453293 -0.302195,-0.453293 -0.302195,-1.265443 0,-0.774375 0.321082,-1.699848 0.33997,-0.94436 0.982135,-1.869833 0.661052,-0.944361 1.378766,-1.529864 0.736601,-0.585503 1.41654,-0.81215 0.698827,-0.226646 1.548751,-0.226646 0.302195,0 0.623278,0.03777 z m -1.152119,1.416541 q -0.453293,-0.09444 -0.849925,-0.09444 -1.510976,0 -2.323126,1.54875 -0.793262,1.548751 -0.793262,2.90863 0,1.171007 0.774375,1.171007 0.661052,0 1.378766,-0.698827 0.717714,-0.698827 1.057683,-1.964269 z" /><path
       id="path888"
       style="font-style:normal;font-variant:normal;font-weight:normal;font-stretch:normal;font-size:18.88720512px;font-family:STLiti;-inkscape-font-specification:STLiti;stroke-width:1.01181459"
       d="m 80.340714,85.268824 0.736601,-0.169985 q -1.001022,3.324148 -1.454315,5.193982 -0.434406,1.869833 -0.434406,3.021953 0,2.587547 -1.28433,3.626343 -1.265442,1.038796 -2.965291,1.038796 -1.152119,0 -1.907608,-0.585503 -0.755488,-0.566616 -0.755488,-1.340992 0,-0.831037 0.528842,-1.359878 0.528842,-0.528842 1.813172,-1.208782 0.661052,-0.358856 1.28433,-0.755488 -0.661053,0.358857 -1.076571,0.358857 -0.33997,0 -0.604391,-0.321082 -0.245533,-0.321083 -0.245533,-0.849925 0,-1.397653 0.642165,-2.70087 0.661052,-1.322104 1.567638,-2.209803 0.925473,-0.906586 1.699848,-1.171007 0.774376,-0.283308 2.360901,-0.283308 z m -1.038796,1.359879 q -0.415519,-0.07555 -0.793263,-0.07555 -1.095458,0 -1.75651,0.698827 -0.642165,0.679939 -1.038796,1.926495 -0.396632,1.246555 -0.396632,1.983156 0,0.434406 0.226647,0.717714 0.245533,0.283308 0.623278,0.283308 0.453292,0 0.963247,-0.415518 0.528842,-0.415519 0.81215,-0.831037 0.283308,-0.434406 0.679939,-1.832059 z M 78.055362,91.6527 q -1.001022,0.849924 -2.436449,1.813171 -1.473202,0.982135 -1.888721,1.454315 -0.396631,0.491067 -0.396631,1.095458 0,0.528842 0.453293,0.94436 0.47218,0.415519 1.133232,0.415519 0.868811,0 1.6243,-0.585504 0.774375,-0.566616 1.07657,-1.41654 0.302196,-0.849924 0.33997,-2.474224 0,-0.415518 0.09444,-1.246555 z" /><path
       id="path890"
       style="font-style:normal;font-variant:normal;font-weight:normal;font-stretch:normal;font-size:18.88720512px;font-family:STLiti;-inkscape-font-specification:STLiti;stroke-width:1.01181459"
       d="m 86.524208,90.802775 0.302195,0.396632 q -2.266465,2.153141 -3.871877,2.153141 -1.359879,0 -1.359879,-1.869833 0,-2.058706 1.322104,-4.098524 1.322105,-2.058705 3.116389,-2.058705 0.661052,0 1.001022,0.377744 0.33997,0.358857 0.33997,0.849924 0,0.81215 -0.793263,1.586525 -0.774375,0.774376 -3.399697,1.907608 -0.07555,0.491067 -0.07555,0.925473 0,0.755488 0.20776,0.982135 0.226646,0.207759 0.623277,0.207759 0.415519,0 0.963248,-0.283308 0.566616,-0.302195 1.6243,-1.076571 z m -3.229713,-1.340991 q 2.757532,-1.28433 2.757532,-2.511999 0,-0.321082 -0.207759,-0.585503 -0.207759,-0.264421 -0.547729,-0.264421 -1.359879,0 -2.002044,3.361923 z" /></g><g
     transform="matrix(0.99137504,0,0,1.0326755,-337.91018,-94.056086)"
     id="g76">
			<linearGradient
   y2="155.80141"
   x2="441.71631"
   y1="155.80141"
   x1="411.25549"
   gradientUnits="userSpaceOnUse"
   id="SVGID_4_">
				<stop
   id="stop34"
   style="stop-color:#EE2A7B"
   offset="0" />
				<stop
   id="stop36"
   style="stop-color:#FBB040"
   offset="1" />
			</linearGradient>
			<path
   inkscape:connector-curvature="0"
   style="fill:url(#SVGID_4_)"
   id="path39"
   d="m 441.72,149.83 c -5.6,-2.94 -12.17,-3.31 -18.06,-1.02 -5.7,2.22 -10.17,6.71 -12.4,12.38 l 3.25,-1.21 7.18,-7.83 -6.26,7.49 6.04,-2.24 5.68,-6.12 -4.75,5.77 6.16,-2.29 4.23,-4.54 -3.52,4.28 9.84,-3.66 -9.72,3.96 5.49,0.77 -6.19,-0.49 -6.08,2.48 7.41,1.04 -8.32,-0.67 -5.97,2.43 9.68,1.29 -10.59,-0.92 -3.22,1.31 c 5.48,2.68 11.81,2.96 17.51,0.75 5.87,-2.29 10.46,-7 12.61,-12.96 z"
   class="st9" />
			<linearGradient
   y2="155.80141"
   x2="371.31131"
   y1="155.80141"
   x1="340.85049"
   gradientUnits="userSpaceOnUse"
   id="SVGID_5_">
				<stop
   id="stop41"
   style="stop-color:#FBB040"
   offset="0" />
				<stop
   id="stop43"
   style="stop-color:#EE2A7B"
   offset="1" />
			</linearGradient>
			<path
   inkscape:connector-curvature="0"
   style="fill:url(#SVGID_5_)"
   id="path46"
   d="m 340.85,149.83 c 5.6,-2.94 12.17,-3.31 18.06,-1.02 5.7,2.22 10.17,6.71 12.4,12.38 l -3.25,-1.21 -7.18,-7.83 6.26,7.49 -6.04,-2.24 -5.68,-6.12 4.75,5.77 -6.16,-2.29 -4.23,-4.54 3.52,4.28 -9.84,-3.66 9.72,3.96 -5.49,0.77 6.19,-0.49 6.08,2.48 -7.41,1.04 8.32,-0.67 5.97,2.43 -9.68,1.29 10.59,-0.92 3.22,1.31 c -5.48,2.68 -11.81,2.96 -17.51,0.75 -5.88,-2.29 -10.47,-7 -12.61,-12.96 z"
   class="st10" />
			<linearGradient
   y2="138.9438"
   x2="431.80231"
   y1="138.9438"
   x1="397.87521"
   gradientUnits="userSpaceOnUse"
   id="SVGID_6_">
				<stop
   id="stop48"
   style="stop-color:#EE2A7B"
   offset="0" />
				<stop
   id="stop50"
   style="stop-color:#FBB040"
   offset="1" />
			</linearGradient>
			<path
   inkscape:connector-curvature="0"
   style="opacity:0.8;fill:url(#SVGID_6_)"
   id="path53"
   d="m 430.57,115.87 c -10.68,1.28 -20.25,7.09 -26.29,15.98 -5.84,8.6 -7.79,19.2 -5.43,29.3 l 3.39,-4.83 2.51,-17.89 -1.55,16.53 6.3,-8.96 2.06,-14.05 -1.1,12.67 6.42,-9.14 1.54,-10.44 -0.81,9.39 10.26,-14.61 -9.81,14.92 8.44,-4.2 -9.14,5.27 -6.14,9.33 11.38,-5.68 -12.3,7.09 -6.02,9.15 14.8,-7.52 -15.72,8.91 -3.24,4.93 c 10.26,-1.53 19.4,-7.23 25.25,-15.83 6.06,-8.89 7.94,-19.92 5.2,-30.32 z"
   class="st11" />
			<linearGradient
   y2="138.9438"
   x2="384.69159"
   y1="138.9438"
   x1="350.7645"
   gradientUnits="userSpaceOnUse"
   id="SVGID_7_">
				<stop
   id="stop55"
   style="stop-color:#FBB040"
   offset="0" />
				<stop
   id="stop57"
   style="stop-color:#EE2A7B"
   offset="1" />
			</linearGradient>
			<path
   inkscape:connector-curvature="0"
   style="opacity:0.8;fill:url(#SVGID_7_)"
   id="path60"
   d="m 351.99,115.87 c 10.68,1.28 20.25,7.09 26.29,15.98 5.85,8.6 7.79,19.2 5.43,29.3 l -3.39,-4.83 -2.51,-17.89 1.55,16.53 -6.3,-8.96 -2.06,-14.06 1.1,12.67 -6.42,-9.14 -1.54,-10.44 0.81,9.39 -10.26,-14.61 9.81,14.92 -8.44,-4.2 9.14,5.27 6.14,9.33 -11.38,-5.68 12.3,7.09 6.02,9.15 -14.8,-7.52 15.72,8.91 3.24,4.93 c -10.26,-1.53 -19.4,-7.23 -25.25,-15.83 -6.05,-8.88 -7.93,-19.91 -5.2,-30.31 z"
   class="st12" />
			<linearGradient
   y2="91.083603"
   x2="391.3725"
   y1="158.02831"
   x1="391.3725"
   gradientUnits="userSpaceOnUse"
   id="SVGID_8_">
				<stop
   id="stop62"
   style="stop-color:#EE2A7B"
   offset="0" />
				<stop
   id="stop64"
   style="stop-color:#FBB040"
   offset="1" />
			</linearGradient>
			<path
   inkscape:connector-curvature="0"
   style="opacity:0.8;fill:url(#SVGID_8_)"
   id="path67"
   d="m 391.37,91.08 c -9.82,8.56 -15.45,20.89 -15.45,33.9 0,12.59 5.27,24.53 14.51,33.04 l 0.11,-7.15 -9.67,-19.63 9.71,17.61 0.2,-13.26 -7.5,-15.47 7.53,13.44 0.21,-13.53 -5.56,-11.5 5.59,9.95 0.33,-21.61 0.33,21.61 5.59,-9.95 -5.56,11.5 0.21,13.53 7.53,-13.44 -7.5,15.47 0.2,13.26 9.71,-17.61 -9.67,19.63 0.11,7.15 c 9.23,-8.51 14.51,-20.45 14.51,-33.04 -0.02,-13.01 -5.64,-25.34 -15.47,-33.9 z"
   class="st13" />
			<linearGradient
   y2="159.1245"
   x2="391.3725"
   y1="163.9362"
   x1="391.3725"
   gradientUnits="userSpaceOnUse"
   id="SVGID_9_">
				<stop
   id="stop69"
   style="stop-color:#EE2A7B"
   offset="0" />
				<stop
   id="stop71"
   style="stop-color:#FBB040"
   offset="1" />
			</linearGradient>
			<path
   inkscape:connector-curvature="0"
   style="opacity:0.8;fill:url(#SVGID_9_)"
   id="path74"
   d="m 393.78,161.53 c 0,1.33 -1.08,2.41 -2.41,2.41 -1.33,0 -2.41,-1.08 -2.41,-2.41 0,-1.33 1.08,-2.41 2.41,-2.41 1.33,0 2.41,1.08 2.41,2.41 z"
   class="st14" />
		</g></g>
<g
   id="DESIGNED_BY_FREEPIK"
   transform="translate(0,-400)">
</g>
</svg>