<?xml version="1.0" encoding="UTF-8" standalone="no"?>
<!-- Generator: Adobe Illustrator 23.0.3, SVG Export Plug-In . SVG Version: 6.00 Build 0)  -->

<svg
   xmlns:dc="http://purl.org/dc/elements/1.1/"
   xmlns:cc="http://creativecommons.org/ns#"
   xmlns:rdf="http://www.w3.org/1999/02/22-rdf-syntax-ns#"
   xmlns:svg="http://www.w3.org/2000/svg"
   xmlns="http://www.w3.org/2000/svg"
   xmlns:sodipodi="http://sodipodi.sourceforge.net/DTD/sodipodi-0.dtd"
   xmlns:inkscape="http://www.inkscape.org/namespaces/inkscape"
   version="1.1"
   x="0px"
   y="0px"
   viewBox="0 0 100 100"
   xml:space="preserve"
   id="svg1155"
   sodipodi:docname="logo.svg"
   width="100"
   height="100"
   inkscape:version="0.92.4 (5da689c313, 2019-01-14)"><metadata
   id="metadata1161"><rdf:RDF><cc:Work
       rdf:about=""><dc:format>image/svg+xml</dc:format><dc:type
         rdf:resource="http://purl.org/dc/dcmitype/StillImage" /><dc:title /></cc:Work></rdf:RDF></metadata><defs
   id="defs1159">
	<linearGradient
   y2="383.01651"
   x2="412.58469"
   y1="383.01651"
   x1="412.58469"
   gradientUnits="userSpaceOnUse"
   id="SVGID_2_"
   gradientTransform="translate(0,-400)">
		<stop
   id="stop12"
   style="stop-color:#EE2A7B"
   offset="0" />
		<stop
   id="stop14"
   style="stop-color:#FBB040"
   offset="1" />
	</linearGradient>
	
	<linearGradient
   y2="383.01651"
   x2="412.58469"
   y1="383.01651"
   x1="412.58469"
   gradientUnits="userSpaceOnUse"
   id="SVGID_3_"
   gradientTransform="translate(0,-400)">
		<stop
   id="stop19"
   style="stop-color:#EE2A7B"
   offset="0" />
		<stop
   id="stop21"
   style="stop-color:#FBB040"
   offset="1" />
	</linearGradient>
	
	
	
	
	
	
	
	

		
		
	
			
			
		
</defs><sodipodi:namedview
   pagecolor="#ffffff"
   bordercolor="#666666"
   borderopacity="1"
   objecttolerance="10"
   gridtolerance="10"
   guidetolerance="10"
   inkscape:pageopacity="0"
   inkscape:pageshadow="2"
   inkscape:window-width="1920"
   inkscape:window-height="1018"
   id="namedview1157"
   showgrid="false"
   inkscape:zoom="2.6700352"
   inkscape:cx="64.062339"
   inkscape:cy="63.863428"
   inkscape:window-x="-8"
   inkscape:window-y="-8"
   inkscape:window-maximized="1"
   inkscape:current-layer="svg1155" />
<style
   type="text/css"
   id="style2">
	.st0{fill:url(#SVGID_1_);}
	.st1{opacity:0.8;fill:none;stroke:url(#SVGID_2_);stroke-miterlimit:10;}
	.st2{opacity:0.8;fill:none;stroke:url(#SVGID_3_);stroke-miterlimit:10;}
	.st3{fill:#F5755A;}
	.st4{font-family:'GreatVibes-Regular';}
	.st5{font-size:32.2081px;}
	.st6{fill:#808285;}
	.st7{font-family:'OpenSans-Regular';}
	.st8{font-size:6.857px;}
	.st9{fill:url(#SVGID_4_);}
	.st10{fill:url(#SVGID_5_);}
	.st11{opacity:0.8;fill:url(#SVGID_6_);}
	.st12{opacity:0.8;fill:url(#SVGID_7_);}
	.st13{opacity:0.8;fill:url(#SVGID_8_);}
	.st14{opacity:0.8;fill:url(#SVGID_9_);}
	.st15{fill:url(#SVGID_10_);}
	.st16{fill:url(#SVGID_11_);}
	.st17{fill:url(#SVGID_12_);}
	.st18{fill:url(#SVGID_13_);}
	.st19{fill:url(#SVGID_14_);}
	.st20{fill:url(#SVGID_15_);}
	.st21{fill:url(#SVGID_16_);}
	.st22{fill:url(#SVGID_17_);}
	.st23{fill:url(#SVGID_18_);}
	.st24{fill:url(#SVGID_19_);}
	.st25{fill:url(#SVGID_20_);}
	.st26{fill:url(#SVGID_21_);}
	.st27{fill:#0193B0;}
	.st28{font-family:'OpenSans-Semibold';}
	.st29{font-size:16.8878px;}
	.st30{font-size:6.464px;}
	.st31{opacity:0.8;}
	.st32{fill:url(#SVGID_22_);}
	.st33{fill:url(#SVGID_23_);}
	.st34{fill:url(#SVGID_24_);}
	.st35{fill:url(#SVGID_25_);}
	.st36{fill:url(#SVGID_26_);}
	.st37{fill:url(#SVGID_27_);}
	.st38{fill:url(#SVGID_28_);}
	.st39{fill:url(#SVGID_29_);}
	.st40{fill:url(#SVGID_30_);}
	.st41{fill:url(#SVGID_31_);}
	.st42{fill:url(#SVGID_32_);}
	.st43{fill:url(#SVGID_33_);}
	.st44{fill:url(#SVGID_34_);}
	.st45{fill:url(#SVGID_35_);}
	.st46{fill:url(#SVGID_36_);}
	.st47{fill:#A149A1;}
	.st48{font-size:30.7396px;}
	.st49{font-size:6.5444px;}
	.st50{fill:url(#SVGID_37_);}
	.st51{fill:url(#SVGID_38_);}
	.st52{fill:url(#SVGID_39_);}
	.st53{fill:url(#SVGID_40_);}
	.st54{fill:url(#SVGID_41_);}
	.st55{fill:url(#SVGID_42_);}
	.st56{fill:url(#SVGID_43_);}
	.st57{fill:url(#SVGID_44_);}
	.st58{fill:url(#SVGID_45_);}
	.st59{fill:url(#SVGID_46_);}
	.st60{fill:url(#SVGID_47_);}
	.st61{fill:url(#SVGID_48_);}
	.st62{fill:url(#SVGID_49_);}
	.st63{fill:url(#SVGID_50_);}
	.st64{fill:url(#SVGID_51_);}
	.st65{fill:url(#SVGID_52_);}
	.st66{fill:url(#SVGID_53_);}
	.st67{fill:url(#SVGID_54_);}
	.st68{fill:url(#SVGID_55_);}
	.st69{fill:url(#SVGID_56_);}
	.st70{fill:url(#SVGID_57_);}
	.st71{fill:url(#SVGID_58_);}
	.st72{fill:url(#SVGID_59_);}
	.st73{fill:url(#SVGID_60_);}
	.st74{fill:url(#SVGID_61_);}
	.st75{fill:url(#SVGID_62_);}
	.st76{fill:url(#SVGID_63_);}
	.st77{fill:url(#SVGID_64_);}
	.st78{fill:url(#SVGID_65_);}
	.st79{fill:url(#SVGID_66_);}
	.st80{fill:url(#SVGID_67_);}
	.st81{fill:url(#SVGID_68_);}
	.st82{fill:url(#SVGID_69_);}
	.st83{fill:url(#SVGID_70_);}
	.st84{fill:url(#SVGID_71_);}
	.st85{fill:url(#SVGID_72_);}
	.st86{fill:url(#SVGID_73_);}
	.st87{fill:url(#SVGID_74_);}
	.st88{fill:url(#SVGID_75_);}
	.st89{fill:url(#SVGID_76_);}
	.st90{fill:url(#SVGID_77_);}
	.st91{fill:url(#SVGID_78_);}
	.st92{fill:url(#SVGID_79_);}
	.st93{fill:url(#SVGID_80_);}
	.st94{fill:url(#SVGID_81_);}
	.st95{fill:url(#SVGID_82_);}
	.st96{fill:url(#SVGID_83_);}
	.st97{fill:url(#SVGID_84_);}
	.st98{fill:url(#SVGID_85_);}
	.st99{fill:url(#SVGID_86_);}
	.st100{fill:url(#SVGID_87_);}
	.st101{fill:url(#SVGID_88_);}
	.st102{fill:url(#SVGID_89_);}
	.st103{fill:url(#SVGID_90_);}
	.st104{fill:url(#SVGID_91_);}
	.st105{fill:url(#SVGID_92_);}
	.st106{fill:url(#SVGID_93_);}
	.st107{fill:url(#SVGID_94_);}
	.st108{fill:url(#SVGID_95_);}
	.st109{fill:url(#SVGID_96_);}
	.st110{fill:url(#SVGID_97_);}
	.st111{fill:url(#SVGID_98_);}
	.st112{fill:url(#SVGID_99_);}
	.st113{fill:url(#SVGID_100_);}
	.st114{fill:url(#SVGID_101_);}
	.st115{fill:url(#SVGID_102_);}
	.st116{fill:url(#SVGID_103_);}
	.st117{fill:url(#SVGID_104_);}
	.st118{fill:url(#SVGID_105_);}
	.st119{fill:url(#SVGID_106_);}
	.st120{fill:url(#SVGID_107_);}
	.st121{fill:url(#SVGID_108_);}
	.st122{fill:url(#SVGID_109_);}
	.st123{fill:url(#SVGID_110_);}
	.st124{fill:url(#SVGID_111_);}
	.st125{fill:url(#SVGID_112_);}
	.st126{fill:url(#SVGID_113_);}
	.st127{fill:url(#SVGID_114_);}
	.st128{fill:url(#SVGID_115_);}
	.st129{fill:url(#SVGID_116_);}
	.st130{fill:url(#SVGID_117_);}
	.st131{fill:url(#SVGID_118_);}
	.st132{fill:url(#SVGID_119_);}
	.st133{fill:url(#SVGID_120_);}
	.st134{fill:url(#SVGID_121_);}
	.st135{fill:url(#SVGID_122_);}
	.st136{fill:url(#SVGID_123_);}
	.st137{fill:url(#SVGID_124_);}
	.st138{fill:url(#SVGID_125_);}
	.st139{fill:url(#SVGID_126_);}
	.st140{fill:url(#SVGID_127_);}
	.st141{fill:url(#SVGID_128_);}
	.st142{fill:url(#SVGID_129_);}
	.st143{font-size:18.6164px;}
	.st144{font-size:7.8366px;}
	.st145{fill:url(#SVGID_130_);}
	.st146{fill:url(#SVGID_131_);}
	.st147{fill:url(#SVGID_132_);}
	.st148{fill:url(#SVGID_133_);}
	.st149{fill:url(#SVGID_134_);}
	.st150{fill:#01749B;}
	.st151{font-size:27.1398px;}
	.st152{font-size:6.6459px;}
	.st153{fill:url(#SVGID_135_);}
	.st154{fill:url(#SVGID_136_);}
	.st155{fill:#FFFFFF;}
	.st156{fill:#F38424;}
	.st157{font-size:17.7669px;}
	.st158{font-size:7.479px;}
	.st159{fill:#757475;}
</style>

<path
   inkscape:connector-curvature="0"
   style="opacity:0.8;fill:none;stroke:url(#SVGID_2_);stroke-miterlimit:10"
   id="path17"
   d="M 412.58,-16.98"
   class="st1" /><path
   inkscape:connector-curvature="0"
   style="opacity:0.8;fill:none;stroke:url(#SVGID_3_);stroke-miterlimit:10"
   id="path24"
   d="M 412.58,-16.98"
   class="st2" /><g
   id="g76"
   transform="matrix(0.99137504,0,0,1.0326755,-337.91018,-94.056086)">
			<linearGradient
   id="SVGID_4_"
   gradientUnits="userSpaceOnUse"
   x1="411.25549"
   y1="155.80141"
   x2="441.71631"
   y2="155.80141">
				<stop
   offset="0"
   style="stop-color:#EE2A7B"
   id="stop34" />
				<stop
   offset="1"
   style="stop-color:#FBB040"
   id="stop36" />
			</linearGradient>
			<path
   class="st9"
   d="m 441.72,149.83 c -5.6,-2.94 -12.17,-3.31 -18.06,-1.02 -5.7,2.22 -10.17,6.71 -12.4,12.38 l 3.25,-1.21 7.18,-7.83 -6.26,7.49 6.04,-2.24 5.68,-6.12 -4.75,5.77 6.16,-2.29 4.23,-4.54 -3.52,4.28 9.84,-3.66 -9.72,3.96 5.49,0.77 -6.19,-0.49 -6.08,2.48 7.41,1.04 -8.32,-0.67 -5.97,2.43 9.68,1.29 -10.59,-0.92 -3.22,1.31 c 5.48,2.68 11.81,2.96 17.51,0.75 5.87,-2.29 10.46,-7 12.61,-12.96 z"
   id="path39"
   style="fill:url(#SVGID_4_)"
   inkscape:connector-curvature="0" />
			<linearGradient
   id="SVGID_5_"
   gradientUnits="userSpaceOnUse"
   x1="340.85049"
   y1="155.80141"
   x2="371.31131"
   y2="155.80141">
				<stop
   offset="0"
   style="stop-color:#FBB040"
   id="stop41" />
				<stop
   offset="1"
   style="stop-color:#EE2A7B"
   id="stop43" />
			</linearGradient>
			<path
   class="st10"
   d="m 340.85,149.83 c 5.6,-2.94 12.17,-3.31 18.06,-1.02 5.7,2.22 10.17,6.71 12.4,12.38 l -3.25,-1.21 -7.18,-7.83 6.26,7.49 -6.04,-2.24 -5.68,-6.12 4.75,5.77 -6.16,-2.29 -4.23,-4.54 3.52,4.28 -9.84,-3.66 9.72,3.96 -5.49,0.77 6.19,-0.49 6.08,2.48 -7.41,1.04 8.32,-0.67 5.97,2.43 -9.68,1.29 10.59,-0.92 3.22,1.31 c -5.48,2.68 -11.81,2.96 -17.51,0.75 -5.88,-2.29 -10.47,-7 -12.61,-12.96 z"
   id="path46"
   style="fill:url(#SVGID_5_)"
   inkscape:connector-curvature="0" />
			<linearGradient
   id="SVGID_6_"
   gradientUnits="userSpaceOnUse"
   x1="397.87521"
   y1="138.9438"
   x2="431.80231"
   y2="138.9438">
				<stop
   offset="0"
   style="stop-color:#EE2A7B"
   id="stop48" />
				<stop
   offset="1"
   style="stop-color:#FBB040"
   id="stop50" />
			</linearGradient>
			<path
   class="st11"
   d="m 430.57,115.87 c -10.68,1.28 -20.25,7.09 -26.29,15.98 -5.84,8.6 -7.79,19.2 -5.43,29.3 l 3.39,-4.83 2.51,-17.89 -1.55,16.53 6.3,-8.96 2.06,-14.05 -1.1,12.67 6.42,-9.14 1.54,-10.44 -0.81,9.39 10.26,-14.61 -9.81,14.92 8.44,-4.2 -9.14,5.27 -6.14,9.33 11.38,-5.68 -12.3,7.09 -6.02,9.15 14.8,-7.52 -15.72,8.91 -3.24,4.93 c 10.26,-1.53 19.4,-7.23 25.25,-15.83 6.06,-8.89 7.94,-19.92 5.2,-30.32 z"
   id="path53"
   style="opacity:0.8;fill:url(#SVGID_6_)"
   inkscape:connector-curvature="0" />
			<linearGradient
   id="SVGID_7_"
   gradientUnits="userSpaceOnUse"
   x1="350.7645"
   y1="138.9438"
   x2="384.69159"
   y2="138.9438">
				<stop
   offset="0"
   style="stop-color:#FBB040"
   id="stop55" />
				<stop
   offset="1"
   style="stop-color:#EE2A7B"
   id="stop57" />
			</linearGradient>
			<path
   class="st12"
   d="m 351.99,115.87 c 10.68,1.28 20.25,7.09 26.29,15.98 5.85,8.6 7.79,19.2 5.43,29.3 l -3.39,-4.83 -2.51,-17.89 1.55,16.53 -6.3,-8.96 -2.06,-14.06 1.1,12.67 -6.42,-9.14 -1.54,-10.44 0.81,9.39 -10.26,-14.61 9.81,14.92 -8.44,-4.2 9.14,5.27 6.14,9.33 -11.38,-5.68 12.3,7.09 6.02,9.15 -14.8,-7.52 15.72,8.91 3.24,4.93 c -10.26,-1.53 -19.4,-7.23 -25.25,-15.83 -6.05,-8.88 -7.93,-19.91 -5.2,-30.31 z"
   id="path60"
   style="opacity:0.8;fill:url(#SVGID_7_)"
   inkscape:connector-curvature="0" />
			<linearGradient
   id="SVGID_8_"
   gradientUnits="userSpaceOnUse"
   x1="391.3725"
   y1="158.02831"
   x2="391.3725"
   y2="91.083603">
				<stop
   offset="0"
   style="stop-color:#EE2A7B"
   id="stop62" />
				<stop
   offset="1"
   style="stop-color:#FBB040"
   id="stop64" />
			</linearGradient>
			<path
   class="st13"
   d="m 391.37,91.08 c -9.82,8.56 -15.45,20.89 -15.45,33.9 0,12.59 5.27,24.53 14.51,33.04 l 0.11,-7.15 -9.67,-19.63 9.71,17.61 0.2,-13.26 -7.5,-15.47 7.53,13.44 0.21,-13.53 -5.56,-11.5 5.59,9.95 0.33,-21.61 0.33,21.61 5.59,-9.95 -5.56,11.5 0.21,13.53 7.53,-13.44 -7.5,15.47 0.2,13.26 9.71,-17.61 -9.67,19.63 0.11,7.15 c 9.23,-8.51 14.51,-20.45 14.51,-33.04 -0.02,-13.01 -5.64,-25.34 -15.47,-33.9 z"
   id="path67"
   style="opacity:0.8;fill:url(#SVGID_8_)"
   inkscape:connector-curvature="0" />
			<linearGradient
   id="SVGID_9_"
   gradientUnits="userSpaceOnUse"
   x1="391.3725"
   y1="163.9362"
   x2="391.3725"
   y2="159.1245">
				<stop
   offset="0"
   style="stop-color:#EE2A7B"
   id="stop69" />
				<stop
   offset="1"
   style="stop-color:#FBB040"
   id="stop71" />
			</linearGradient>
			<path
   class="st14"
   d="m 393.78,161.53 c 0,1.33 -1.08,2.41 -2.41,2.41 -1.33,0 -2.41,-1.08 -2.41,-2.41 0,-1.33 1.08,-2.41 2.41,-2.41 1.33,0 2.41,1.08 2.41,2.41 z"
   id="path74"
   style="opacity:0.8;fill:url(#SVGID_9_)"
   inkscape:connector-curvature="0" />
		</g>
<g
   id="DESIGNED_BY_FREEPIK"
   transform="translate(0,-400)">
</g>
<g
   aria-label="Q Foot Massage"
   style="font-style:normal;font-variant:normal;font-weight:normal;font-stretch:normal;font-size:32px;line-height:1.25;font-family:STHupo;-inkscape-font-specification:STHupo;letter-spacing:0px;word-spacing:0px;fill:#000000;fill-opacity:1;stroke:none"
   id="text892"
   transform="matrix(0.96019188,0,0,1,-23.314667,0)"><path
     d="m 51.276056,82.815801 q -0.03125,-0.208334 -0.07292,-0.4375 0,0.09375 0.03125,-0.145834 0.03125,-0.239583 0.08333,-0.822916 0.08333,-0.114584 0.114583,-0.197917 0.04167,-0.09375 0.07292,-0.166667 -0.09375,-0.114583 -0.145833,-0.1875 -0.04167,-0.08333 -0.04167,-0.135416 0.08333,-0.635417 0.15625,-1.208334 0.01042,-0.15625 0.177083,-0.354166 0.177084,-0.197917 0.479167,-0.427084 0.239583,-0.197916 0.46875,-0.333333 0.229167,-0.135417 0.4375,-0.21875 0.28125,-0.09375 0.333333,-0.15625 0.05208,-0.0625 0.114584,-0.0625 0.166666,0 0.25,0.166667 0.09375,0.166666 0.09375,0.5 0,0.177083 -0.09375,0.489583 -0.08333,0.3125 -0.08333,0.458333 0,0.0625 0.01042,0.479167 0.02083,0.416667 0.05208,1.197917 0.01042,0.5625 0.15625,1.197916 0.15625,0.635417 0.395834,1.322917 0.322916,0.895833 0.697916,1.34375 0.375,0.4375 0.822917,0.4375 0.354167,0 0.9375,-0.458333 0.583334,-0.458334 1.375,-1.375 0.604167,-0.708334 1.072917,-1.322917 0.479167,-0.614583 0.770833,-1.125 0.270834,-0.458333 0.635417,-0.822917 0.364583,-0.364583 0.833333,-0.666666 0.145834,-0.08333 0.239584,-0.135417 0.09375,-0.05208 0.145833,-0.05208 0.1875,0 0.28125,0.28125 0.104167,0.28125 0.104167,0.833333 -0.0625,0.510417 -0.104167,1.010417 -0.09375,0.78125 -0.28125,1.625 -0.177083,0.84375 -0.46875,1.75 -0.145833,0.458333 -0.25,0.802083 -0.104167,0.34375 -0.145833,0.583333 -0.02083,0.135417 -0.0625,0.34375 -0.03125,0.197917 -0.07292,0.46875 -0.104167,0.260417 -0.229167,0.520834 -0.104166,0.208333 -0.177083,0.5 -0.0625,0.291667 -0.114583,0.677083 0,0.07292 -0.01042,0.1875 -0.01042,0.114584 -0.02083,0.239584 -0.239584,1.0625 -0.489584,2.0625 -0.02083,0.09375 -0.09375,0.239583 -0.135416,0.04167 -0.3125,0.177083 -0.166666,0.135417 -0.354166,0.375 -0.1875,0.208334 -0.3125,0.3125 -0.125,0.09375 -0.1875,0.09375 -0.08333,0 -0.135417,-0.05208 -0.05208,-0.05208 -0.05208,-0.177083 0.01042,-0.08333 0.03125,-0.135417 0.145833,-0.354167 0.25,-1.020833 0.114583,-0.666667 0.208333,-1.645834 0.01042,-0.208333 0.166667,-1.125 0.15625,-0.916667 0.458333,-2.541667 0.04167,-0.260416 0.104167,-0.635416 0.07292,-0.385417 0.177083,-0.875 0.07292,-0.25 0.114583,-0.427084 0.05208,-0.1875 0.05208,-0.270833 0,-0.104167 -0.04167,-0.145833 -0.03125,-0.05208 -0.104167,-0.05208 -0.0625,0 -0.229166,0.166667 -0.166667,0.15625 -0.416667,0.479167 -0.145833,0.177083 -0.302083,0.375 -0.145834,0.197916 -0.3125,0.385416 -0.28125,0.291667 -0.520834,0.552084 l -0.770833,0.770833 q -0.104167,0.0625 -0.260417,0.15625 -0.145833,0.09375 -0.354167,0.21875 -0.197916,0.3125 -0.635416,0.541667 -0.427084,0.21875 -0.791667,0.21875 -0.4375,0 -0.84375,-0.270834 -0.395833,-0.28125 -0.770833,-0.854166 -0.166667,-0.28125 -0.333334,-0.5625 -0.15625,-0.28125 -0.34375,-0.5625 l -0.05208,0.01042 q -0.05208,0.0625 -0.197917,0.84375 -0.135416,0.78125 -0.354166,2.291667 -0.239584,1.552084 -0.364584,2.4375 -0.125,0.885417 -0.125,1.145834 -0.02083,0.354166 -0.135416,0.552083 -0.104167,0.1875 -0.333334,0.21875 -0.114583,0.01042 -0.322916,0.0625 -0.208334,0.04167 -0.5,0.114583 -0.05208,-0.01042 -0.09375,-0.03125 -0.04167,-0.03125 -0.04167,-0.08333 l 0.0625,-0.385417 -0.104167,-0.395833 q 0.0625,-0.322917 0.125,-0.625 0.04167,-0.625 0.07292,-1.177083 0.01042,-0.114584 0.07292,-0.385417 0.07292,-0.270833 0.07292,-0.40625 0,-0.07292 -0.03125,-0.208333 -0.03125,-0.145834 -0.03125,-0.21875 0,-0.572917 0.177084,-1.697917 0.1875,-1.125 0.1875,-1.708334 -0.03125,-0.239583 -0.07292,-0.479166 0.05208,-0.375 0.166667,-0.9375 0.114583,-0.5625 0.260416,-1.3125 z"
     style="font-style:normal;font-variant:normal;font-weight:normal;font-stretch:normal;font-size:21.33333397px;font-family:Mistral;-inkscape-font-specification:Mistral;fill:#f5755a;fill-opacity:1"
     id="path904"
     inkscape:connector-curvature="0" /><path
     d="m 62.276058,89.576218 0.947916,-0.625 q 0.05208,-0.05208 0.125,-0.135417 0.07292,-0.09375 0.166667,-0.260417 0.07292,-0.135416 0.1875,-0.229166 0.125,-0.09375 0.28125,-0.166667 0.08333,-0.104167 0.239583,-0.260417 0.15625,-0.15625 0.395834,-0.364583 0.114583,-0.0625 0.291666,-0.177084 0.177084,-0.125 0.385417,-0.322916 0.947917,-0.895834 1.65625,-1.34375 0.71875,-0.447917 1.208333,-0.447917 0.270834,0 0.395834,0.114583 0.135416,0.114584 0.135416,0.322917 0,0.21875 -0.08333,0.385417 -0.07292,0.166666 -0.239583,0.28125 -0.260417,0.1875 -0.5625,0.416666 -0.166667,0.21875 -0.40625,0.46875 -0.239584,0.239584 -0.5625,0.479167 -0.104167,0.135417 -0.177084,0.239583 -0.05208,0.05208 -0.197916,0.187501 -0.145834,0.135416 -0.385417,0.3125 -0.104167,0.229166 -0.458333,0.59375 -0.34375,0.364583 -0.927084,0.875 -0.07292,0.07292 -0.260416,0.333333 -0.1875,0.260417 -0.489584,0.6875 l 0.07292,0.09375 q 0.229167,-0.07292 0.479167,-0.25 0.25,-0.177083 0.552083,-0.46875 0.354167,-0.322917 0.572917,-0.520833 0.229166,-0.208334 0.322916,-0.270834 0.07292,-0.04167 0.145834,-0.08333 0.07292,-0.04167 0.166666,-0.104167 0.479167,-0.572916 0.895834,-0.84375 0.416666,-0.28125 0.770833,-0.28125 0.21875,0 0.333333,0.177084 0.114584,0.166666 0.135417,0.510416 -0.02083,0.520834 -0.02083,1 -0.01042,0.333334 0.177083,0.604167 0.197917,0.260417 0.510417,0.260417 0.09375,0 0.177083,-0.05208 0.09375,-0.05208 0.1875,-0.135416 0.07292,-0.09375 0.135417,-0.177084 0.07292,-0.08333 0.145833,-0.166666 0.04167,-0.02083 0.114583,-0.07292 0.08333,-0.05208 0.15625,-0.125 0.145834,0.3125 0.239584,0.552083 0.104166,0.229167 0.15625,0.40625 -0.239584,0.21875 -0.479167,0.458334 -0.229167,0.229166 -0.489583,0.4375 -0.3125,0.239583 -0.604167,0.364583 -0.291667,0.114583 -0.583333,0.114583 -0.677084,0 -1.041667,-0.385416 -0.364583,-0.385417 -0.427083,-1.166667 0,-0.09375 -0.03125,-0.1875 -0.02083,-0.104167 -0.104167,-0.208333 -0.05208,0.05208 -0.114583,0.114583 -0.0625,0.05208 -0.145834,0.145833 -0.135416,0.104167 -0.34375,0.260417 -0.197916,0.15625 -0.46875,0.375 -0.364583,0.375 -0.614583,0.614583 -0.25,0.239584 -0.354167,0.34375 -0.208333,0.177084 -0.489583,0.354167 -0.270833,0.177083 -0.614583,0.364583 -0.21875,0.114584 -0.375,0.177084 -0.15625,0.07292 -0.229167,0.07292 -0.5,0 -0.739583,-0.239583 -0.239584,-0.25 -0.239584,-0.760417 0,-0.28125 0.125,-0.53125 0.114584,-0.260416 0.354167,-0.5 0.02083,-0.135416 0.02083,-0.21875 0,-0.05208 -0.03125,-0.104166 -0.02083,-0.0625 -0.0625,-0.135417 -0.0625,-0.145833 -0.135416,-0.322917 -0.08333,-0.1875 -0.177084,-0.395833 0.04167,-0.04167 0.125,-0.15625 0.07292,-0.125 0.177084,-0.302083 z"
     style="font-style:normal;font-variant:normal;font-weight:normal;font-stretch:normal;font-size:21.33333397px;font-family:Mistral;-inkscape-font-specification:Mistral;fill:#f5755a;fill-opacity:1"
     id="path906"
     inkscape:connector-curvature="0" /><path
     d="m 69.942724,90.034551 0.0625,-0.07292 q 0.04167,-0.145833 0.1875,-0.3125 0.135417,-0.166666 0.395834,-0.333333 0.34375,-0.21875 0.53125,-0.354167 0.197916,-0.135416 0.239583,-0.197916 0.09375,-0.114584 0.125,-0.177084 0.114583,-0.08333 0.28125,-0.229166 0.166667,-0.145834 0.375,-0.354167 0.07292,-0.05208 0.15625,-0.166667 0.08333,-0.114583 0.166667,-0.260417 0.135416,-0.09375 0.302083,-0.239583 0.177083,-0.145833 0.40625,-0.375 0.260417,-0.28125 0.583333,-0.614583 0.333334,-0.34375 0.739584,-0.708334 0.135416,-0.0625 0.25,-0.09375 0.125,-0.04167 0.239583,-0.04167 0.46875,0 0.697917,0.229166 0.239583,0.21875 0.239583,0.635417 0,0.104167 -0.04167,0.34375 -0.03125,0.239583 -0.07292,0.604167 -0.145834,1.052083 -0.208334,1.28125 -0.0625,0.229167 -0.4375,1.4375 -0.08333,0.197917 -0.177083,0.489583 -0.08333,0.291667 -0.208333,0.708334 0.02083,0.04167 0.104166,0.08333 0.07292,0 0.260417,-0.135417 0.1875,-0.145833 0.5,-0.427083 0.364583,-0.333333 0.572917,-0.510417 0.208333,-0.177083 0.260416,-0.208333 0.125,0.28125 0.229167,0.520833 0.104167,0.229167 0.177083,0.4375 -0.135416,0.08333 -0.25,0.1875 -0.104166,0.104167 -0.197916,0.229167 -0.21875,0.145833 -0.510417,0.333333 -0.28125,0.1875 -0.625,0.40625 -0.15625,0.15625 -0.427083,0.385417 -0.260417,0.21875 -0.59375,0.5 l -0.197917,0.04167 q -0.145833,0.197916 -0.28125,0.302083 -0.125,0.104167 -0.229167,0.145833 -0.166666,0.0625 -0.333333,0.114584 -0.166667,0.0625 -0.354167,0.125 -0.114583,-0.03125 -0.166666,-0.135417 -0.05208,-0.104167 -0.04167,-0.270833 -0.15625,-0.28125 -0.25,-0.645834 -0.09375,-0.364583 -0.09375,-0.8125 0,-0.08333 0.01042,-0.177083 0.01042,-0.09375 0.02083,-0.166667 -0.07292,-0.270833 -0.07292,-0.322916 0,-0.3125 0.239584,-0.510417 0.239583,-0.208333 0.541666,-0.208333 0.15625,0 0.21875,0.166666 0.07292,0.15625 0.145834,0.15625 0.07292,0 0.145833,-0.28125 0.08333,-0.291666 0.15625,-0.84375 0.07292,-0.479166 0.09375,-0.833333 0.02083,-0.354167 0.02083,-0.541667 0,-0.135416 -0.0625,-0.197916 -0.05208,-0.07292 -0.1875,-0.07292 -0.135416,0 -0.875,0.625 -0.739583,0.625 -2.0625,1.864583 -0.04167,0.07292 -0.125,0.177084 -0.07292,0.104166 -0.177083,0.260416 -0.04167,-0.15625 -0.145833,-0.385416 -0.104167,-0.229167 -0.270834,-0.572917 z"
     style="font-style:normal;font-variant:normal;font-weight:normal;font-stretch:normal;font-size:21.33333397px;font-family:Mistral;-inkscape-font-specification:Mistral;fill:#f5755a;fill-opacity:1"
     id="path908"
     inkscape:connector-curvature="0" /><path
     d="m 76.484388,90.034551 0.0625,-0.07292 q 0.04167,-0.145833 0.1875,-0.3125 0.135417,-0.166666 0.395834,-0.333333 0.34375,-0.21875 0.53125,-0.354167 0.197916,-0.135416 0.239583,-0.197916 0.09375,-0.114584 0.125,-0.177084 0.114583,-0.08333 0.28125,-0.229166 0.166667,-0.145834 0.375,-0.354167 0.07292,-0.05208 0.15625,-0.166667 0.08333,-0.114583 0.166667,-0.260417 0.135416,-0.09375 0.302083,-0.239583 0.177083,-0.145833 0.40625,-0.375 0.260417,-0.28125 0.583333,-0.614583 0.333334,-0.34375 0.739584,-0.708334 0.135416,-0.0625 0.25,-0.09375 0.125,-0.04167 0.239583,-0.04167 0.46875,0 0.697917,0.229166 0.239583,0.21875 0.239583,0.635417 0,0.104167 -0.04167,0.34375 -0.03125,0.239583 -0.07292,0.604167 -0.145833,1.052083 -0.208333,1.28125 -0.0625,0.229167 -0.437501,1.4375 -0.08333,0.197917 -0.177083,0.489583 -0.08333,0.291667 -0.208333,0.708334 0.02083,0.04167 0.104166,0.08333 0.07292,0 0.260417,-0.135417 0.1875,-0.145833 0.5,-0.427083 0.364584,-0.333333 0.572917,-0.510417 0.208333,-0.177083 0.260417,-0.208333 0.125,0.28125 0.229166,0.520833 0.104167,0.229167 0.177084,0.4375 -0.135417,0.08333 -0.25,0.1875 -0.104167,0.104167 -0.197917,0.229167 -0.21875,0.145833 -0.510417,0.333333 -0.28125,0.1875 -0.625,0.40625 -0.15625,0.15625 -0.427083,0.385417 -0.260417,0.21875 -0.59375,0.5 l -0.197917,0.04167 q -0.145833,0.197916 -0.28125,0.302083 -0.125,0.104167 -0.229167,0.145833 -0.166666,0.0625 -0.333333,0.114584 -0.166667,0.0625 -0.354167,0.125 -0.114583,-0.03125 -0.166666,-0.135417 -0.05208,-0.104167 -0.04167,-0.270833 -0.15625,-0.28125 -0.25,-0.645834 -0.09375,-0.364583 -0.09375,-0.8125 0,-0.08333 0.01042,-0.177083 0.01042,-0.09375 0.02083,-0.166667 -0.07292,-0.270833 -0.07292,-0.322916 0,-0.3125 0.239584,-0.510417 0.239583,-0.208333 0.541666,-0.208333 0.15625,0 0.21875,0.166666 0.07292,0.15625 0.145834,0.15625 0.07292,0 0.145833,-0.28125 0.08333,-0.291666 0.15625,-0.84375 0.07292,-0.479166 0.09375,-0.833333 0.02083,-0.354167 0.02083,-0.541667 0,-0.135416 -0.0625,-0.197916 -0.05208,-0.07292 -0.1875,-0.07292 -0.135416,0 -0.875,0.625 -0.739583,0.625 -2.0625,1.864583 -0.04167,0.07292 -0.125,0.177084 -0.07292,0.104166 -0.177083,0.260416 -0.04167,-0.15625 -0.145833,-0.385416 -0.104167,-0.229167 -0.270834,-0.572917 z"
     style="font-style:normal;font-variant:normal;font-weight:normal;font-stretch:normal;font-size:21.33333397px;font-family:Mistral;-inkscape-font-specification:Mistral;fill:#f5755a;fill-opacity:1"
     id="path910"
     inkscape:connector-curvature="0" /><path
     d="m 83.359393,89.576218 0.947917,-0.625 q 0.05208,-0.05208 0.125,-0.135417 0.07292,-0.09375 0.166667,-0.260417 0.07292,-0.135416 0.1875,-0.229166 0.125,-0.09375 0.28125,-0.166667 0.08333,-0.104167 0.239583,-0.260417 0.15625,-0.15625 0.395834,-0.364583 0.114583,-0.0625 0.291666,-0.177084 0.177084,-0.125 0.385417,-0.322916 0.947917,-0.895834 1.65625,-1.34375 0.71875,-0.447917 1.208333,-0.447917 0.270834,0 0.395834,0.114583 0.135416,0.114584 0.135416,0.322917 0,0.21875 -0.08333,0.385417 -0.07292,0.166666 -0.239583,0.28125 -0.260417,0.1875 -0.5625,0.416666 -0.166667,0.21875 -0.40625,0.46875 -0.239584,0.239584 -0.5625,0.479167 -0.104167,0.135417 -0.177084,0.239583 -0.05208,0.05208 -0.197916,0.187501 -0.145834,0.135416 -0.385417,0.3125 -0.104167,0.229166 -0.458333,0.59375 -0.34375,0.364583 -0.927084,0.875 -0.07292,0.07292 -0.260416,0.333333 -0.187501,0.260417 -0.489584,0.6875 l 0.07292,0.09375 q 0.229166,-0.07292 0.479167,-0.25 0.25,-0.177083 0.552083,-0.46875 0.354167,-0.322917 0.572917,-0.520833 0.229166,-0.208334 0.322916,-0.270834 0.07292,-0.04167 0.145834,-0.08333 0.07292,-0.04167 0.166666,-0.104167 0.479167,-0.572916 0.895834,-0.84375 0.416666,-0.28125 0.770833,-0.28125 0.21875,0 0.333333,0.177084 0.114584,0.166666 0.135417,0.510416 -0.02083,0.520834 -0.02083,1 -0.01042,0.333334 0.177083,0.604167 0.197917,0.260417 0.510417,0.260417 0.09375,0 0.177083,-0.05208 0.09375,-0.05208 0.1875,-0.135416 0.07292,-0.09375 0.135417,-0.177084 0.07292,-0.08333 0.145833,-0.166666 0.04167,-0.02083 0.114583,-0.07292 0.08333,-0.05208 0.15625,-0.125 0.145834,0.3125 0.239584,0.552083 0.104166,0.229167 0.15625,0.40625 -0.239584,0.21875 -0.479167,0.458334 -0.229167,0.229166 -0.489583,0.4375 -0.3125,0.239583 -0.604167,0.364583 -0.291667,0.114583 -0.583333,0.114583 -0.677084,0 -1.041667,-0.385416 -0.364583,-0.385417 -0.427083,-1.166667 0,-0.09375 -0.03125,-0.1875 -0.02083,-0.104167 -0.104167,-0.208333 -0.05208,0.05208 -0.114583,0.114583 -0.0625,0.05208 -0.145834,0.145833 -0.135416,0.104167 -0.34375,0.260417 -0.197916,0.15625 -0.46875,0.375 -0.364583,0.375 -0.614583,0.614583 -0.25,0.239584 -0.354167,0.34375 -0.208333,0.177084 -0.489583,0.354167 -0.270834,0.177083 -0.614584,0.364583 -0.21875,0.114584 -0.375,0.177084 -0.15625,0.07292 -0.229166,0.07292 -0.5,0 -0.739584,-0.239583 -0.239583,-0.25 -0.239583,-0.760417 0,-0.28125 0.125,-0.53125 0.114583,-0.260416 0.354167,-0.5 0.02083,-0.135416 0.02083,-0.21875 0,-0.05208 -0.03125,-0.104166 -0.02083,-0.0625 -0.0625,-0.135417 -0.0625,-0.145833 -0.135417,-0.322917 -0.08333,-0.1875 -0.177083,-0.395833 0.04167,-0.04167 0.125,-0.15625 0.07292,-0.125 0.177083,-0.302083 z"
     style="font-style:normal;font-variant:normal;font-weight:normal;font-stretch:normal;font-size:21.33333397px;font-family:Mistral;-inkscape-font-specification:Mistral;fill:#f5755a;fill-opacity:1"
     id="path912"
     inkscape:connector-curvature="0" /><path
     d="m 91.02606,90.034551 q 0.07292,-0.08333 0.177083,-0.229167 0.104167,-0.15625 0.260417,-0.354166 0.135417,-0.114584 0.3125,-0.302084 0.177083,-0.197916 0.395833,-0.489583 0.08333,-0.177083 0.197917,-0.385417 0.125,-0.21875 0.28125,-0.510417 0.0625,-0.28125 0.291667,-0.635416 0.229166,-0.364584 0.635417,-0.8125 0.572916,-0.635417 1.197916,-1.354167 0.322917,-0.479167 0.697917,-0.708333 0.385417,-0.229167 0.822917,-0.229167 0.291666,0 0.4375,0.260417 0.15625,0.260416 0.15625,0.770833 0,0.1875 -0.260417,0.583333 -0.25,0.395834 -0.770833,1.010417 -0.322917,0.385417 -0.677084,0.770833 -0.354166,0.375 -0.697916,0.770834 -0.15625,0.145833 -0.333334,0.322917 -0.166666,0.166666 -0.364583,0.375 -0.0625,0.21875 -0.135417,0.489583 0,0.40625 0.05208,0.708333 0.05208,0.291667 0.15625,0.5 0.05208,0.07292 0.21875,0.333334 0.177083,0.25 0.46875,0.65625 0.07292,0.104166 0.177083,0.208333 0.104167,0.104167 0.239583,0.208333 0.15625,-0.0625 0.604167,-0.552083 0.447917,-0.5 1.208333,-1.40625 l 0.395834,0.958333 q -0.07292,0.08333 -0.28125,0.34375 -0.197917,0.25 -0.489584,0.666667 -0.333333,0.4375 -0.677083,0.9375 0,0.104167 0.09375,0.239583 0.104167,0.135417 0.25,0.302084 0.270833,0.3125 0.458333,0.8125 0.197917,0.5 0.302084,1.21875 -0.01042,0.05208 -0.03125,0.166666 -0.01042,0.114584 -0.02083,0.260417 -0.125,1.197917 -1.479166,2.395833 -1.34375,1.197917 -2.541667,1.197917 -0.552084,0 -0.885417,-0.145833 -0.322917,-0.135417 -0.458333,-0.416667 -0.05208,-0.135417 -0.08333,-0.53125 -0.03125,-0.395833 -0.03125,-1.052083 0,-0.0625 0.0625,-0.25 0.05208,-0.177084 0.1875,-0.489584 0.07292,-0.208333 0.197917,-0.4375 0.135417,-0.21875 0.28125,-0.479166 0.145833,-0.21875 0.291667,-0.427084 0.15625,-0.208333 0.291666,-0.416666 0.333334,-0.364584 0.59375,-0.645834 0.197917,-0.197916 0.302084,-0.375 0.114583,-0.177083 0.114583,-0.3125 -0.354167,-0.489583 -0.708333,-0.9375 -0.375,-0.46875 -0.614584,-0.9375 -0.229166,-0.46875 -0.302083,-0.958333 -0.01042,-0.0625 -0.08333,-0.197917 -0.239584,0.229167 -0.46875,0.46875 -0.04167,-0.15625 -0.145834,-0.385416 -0.104166,-0.229167 -0.270833,-0.572917 z m 3.416667,4.375 q -0.0625,0 -0.291667,0.291667 -0.21875,0.291666 -0.604166,0.864583 -0.218751,0.34375 -0.437501,0.697917 -0.21875,0.354166 -0.458333,0.697916 -0.08333,0.114584 -0.239583,0.541667 -0.15625,0.427083 -0.15625,0.541667 0,0.197916 0.104166,0.291666 0.114584,0.09375 0.34375,0.09375 0.802084,0 1.645834,-0.875 0.84375,-0.864583 0.84375,-1.666666 0,-0.166667 -0.0625,-0.395834 -0.0625,-0.21875 -0.166667,-0.489583 -0.135416,-0.302083 -0.260416,-0.447917 -0.125,-0.145833 -0.260417,-0.145833 z"
     style="font-style:normal;font-variant:normal;font-weight:normal;font-stretch:normal;font-size:21.33333397px;font-family:Mistral;-inkscape-font-specification:Mistral;fill:#f5755a;fill-opacity:1"
     id="path914"
     inkscape:connector-curvature="0" /><path
     d="m 96.77606,90.034551 q 0.125,-0.21875 0.322917,-0.4375 0.197916,-0.229167 0.5,-0.46875 0.03125,-0.208333 0.0625,-0.40625 0.03125,-0.208333 0.04167,-0.416667 0.03125,-0.145833 0.09375,-0.34375 0.07292,-0.197917 0.15625,-0.427083 0.09375,-0.229167 0.25,-0.572917 0.166667,-0.34375 0.427084,-0.770833 0.21875,-0.239584 0.458333,-0.520834 0.239584,-0.291666 0.479167,-0.583333 0.114583,-0.09375 0.25,-0.177083 0.135417,-0.08333 0.270829,-0.1875 0.125,-0.04167 0.28125,-0.07292 0.15625,-0.03125 0.34375,-0.03125 0.26042,0 0.41667,0.05208 0.16666,0.05208 0.27083,0.177084 0.0729,0.08333 0.13542,0.25 0.0729,0.166666 0.13541,0.40625 0.0312,0.208333 0.0729,0.458333 0,-0.0625 -0.0417,0.05208 -0.0312,0.114584 -0.10416,0.364584 l -0.0937,0.333333 q -0.14584,0.5 -0.65625,1.15625 -0.51042,0.65625 -1.374999,1.5 -0.07292,0.07292 -0.125,0.1875 -0.05208,0.104167 -0.05208,0.229167 0,0.21875 0.07292,0.385417 0.08333,0.166666 0.229167,0.25 0.08333,0.0625 0.260417,0.125 0.187495,0.0625 0.437495,0.114583 0.40625,-0.03125 0.73959,-0.135417 0.33333,-0.104166 0.59375,-0.25 0.0521,-0.03125 0.16666,-0.08333 0.11459,-0.0625 0.22917,-0.15625 0.13542,0.302083 0.23958,0.541667 0.10417,0.239583 0.16667,0.416666 -0.59375,0.583334 -1.08333,0.885417 -0.47917,0.291667 -0.88542,0.291667 -0.16667,0.104166 -0.38542,0.15625 -0.208329,0.04167 -0.499995,0.04167 -0.385417,0 -0.687501,-0.114583 -0.291666,-0.114583 -0.489583,-0.333333 -0.104167,-0.104167 -0.208333,-0.302084 -0.104167,-0.208333 -0.21875,-0.489583 -0.09375,-0.229167 -0.177084,-0.333333 -0.08333,-0.114584 -0.1875,-0.114584 -0.08333,0 -0.1875,0.08333 -0.104166,0.07292 -0.229166,0.229166 -0.04167,-0.15625 -0.145834,-0.385416 -0.104166,-0.229167 -0.270833,-0.572917 z m 3.33333,-3.385417 q -0.229163,0 -0.61458,0.604167 -0.385417,0.59375 -0.385417,0.875 0,0.0625 0.02083,0.09375 0.03125,0.02083 0.114583,0.02083 0.114584,0 0.1875,-0.114583 0.07292,-0.125 0.135417,-0.229167 0.114583,-0.104167 0.21875,-0.21875 0.114583,-0.125 0.218757,-0.239583 0.125,-0.145834 0.1875,-0.291667 0.0625,-0.145833 0.0625,-0.291667 0,-0.09375 -0.0417,-0.145833 -0.0312,-0.0625 -0.10417,-0.0625 z"
     style="font-style:normal;font-variant:normal;font-weight:normal;font-stretch:normal;font-size:21.33333397px;font-family:Mistral;-inkscape-font-specification:Mistral;fill:#f5755a;fill-opacity:1"
     id="path916"
     inkscape:connector-curvature="0" /></g></svg>