<?xml version="1.0" encoding="UTF-8" standalone="no"?>
<!-- Created with Inkscape (http://www.inkscape.org/) -->

<svg
   xmlns:dc="http://purl.org/dc/elements/1.1/"
   xmlns:cc="http://creativecommons.org/ns#"
   xmlns:rdf="http://www.w3.org/1999/02/22-rdf-syntax-ns#"
   xmlns:svg="http://www.w3.org/2000/svg"
   xmlns="http://www.w3.org/2000/svg"
   xmlns:sodipodi="http://sodipodi.sourceforge.net/DTD/sodipodi-0.dtd"
   xmlns:inkscape="http://www.inkscape.org/namespaces/inkscape"
   width="200"
   height="200"
   viewBox="0 0 31.749999 31.749999"
   version="1.1"
   id="svg8"
   inkscape:version="0.92.4 (5da689c313, 2019-01-14)"
   sodipodi:docname="notice1.svg">
  <defs
     id="defs2" />
  <sodipodi:namedview
     id="base"
     pagecolor="#ffffff"
     bordercolor="#666666"
     borderopacity="1.0"
     inkscape:pageopacity="0.0"
     inkscape:pageshadow="2"
     inkscape:zoom="7.9195959"
     inkscape:cx="91.221772"
     inkscape:cy="79.993829"
     inkscape:document-units="mm"
     inkscape:current-layer="layer1"
     showgrid="false"
     units="px"
     inkscape:snap-nodes="false"
     inkscape:window-width="1920"
     inkscape:window-height="1018"
     inkscape:window-x="-8"
     inkscape:window-y="-8"
     inkscape:window-maximized="1" />
  <metadata
     id="metadata5">
    <rdf:RDF>
      <cc:Work
         rdf:about="">
        <dc:format>image/svg+xml</dc:format>
        <dc:type
           rdf:resource="http://purl.org/dc/dcmitype/StillImage" />
        <dc:title></dc:title>
      </cc:Work>
    </rdf:RDF>
  </metadata>
  <g
     inkscape:label="Layer 1"
     inkscape:groupmode="layer"
     id="layer1"
     transform="translate(0,-265.25)">
    <path
       style="fill:none;fill-opacity:1;stroke:#c8c8c8;stroke-width:0.79374999;stroke-linecap:round;stroke-linejoin:round;stroke-miterlimit:4;stroke-dasharray:none;stroke-dashoffset:0;stroke-opacity:1;paint-order:normal"
       d="M 7.4803829,296.15306 H 25.193316 c 0,0 0.473706,-0.15892 0.642559,-0.33073 0.17477,-0.17783 0.33073,-0.67091 0.33073,-0.67091 v -21.81057 c -0.247085,-1.14092 -0.192926,-1.53911 -0.856353,-2.25569 l -3.697079,-3.73252"
       id="path835-2"
       inkscape:connector-curvature="0"
       sodipodi:nodetypes="ccacccc" />
    <path
       style="fill:#47b8cf;fill-opacity:1;stroke:none;stroke-width:0.79374999;stroke-linecap:round;stroke-linejoin:round;stroke-miterlimit:4;stroke-dasharray:none;stroke-dashoffset:0;stroke-opacity:1;paint-order:normal"
       d="m 15.875,267.818 c 0.482735,0 0.87407,0.39133 0.87407,0.87407 0,0.48274 -0.391334,0.87407 -0.87407,0.87407 -0.482736,0 -0.87407,-0.39133 -0.87407,-0.87407 0,-0.48274 0.391334,-0.87407 0.87407,-0.87407 v -1.48132 h -3.236422 c -1.077495,0.0811 -1.421348,0.11025 -2.273763,1.1103 l -3.6970797,3.73252 c -0.663427,0.71658 -0.6092672,0.91432 -0.8563523,2.05524 v 21.67694 c 0,0 0.1559596,0.49308 0.3307292,0.67091 0.1688531,0.17181 0.6425594,0.33073 0.6425594,0.33073 H 24.965327 c 0,0 0.473706,-0.15892 0.642559,-0.33073 0.17477,-0.17783 0.33073,-0.67091 0.33073,-0.67091 v -21.67694 c -0.247085,-1.14092 -0.192926,-1.33866 -0.856353,-2.05524 l -3.697079,-3.73252 c -0.852415,-1.00005 -1.196268,-1.0292 -2.273763,-1.1103 H 15.875 Z"
       id="path835"
       inkscape:connector-curvature="0"
       sodipodi:nodetypes="cssscccccccaccaccccccc" />
    <path
       style="fill:none;fill-opacity:1;stroke:#ffffff;stroke-width:0.25003123;stroke-linecap:round;stroke-linejoin:round;stroke-miterlimit:4;stroke-dasharray:0.5000625, 0.5000625;stroke-dashoffset:0;stroke-opacity:1;paint-order:normal"
       d="m 12.816581,267.15004 c -1.018232,0.0766 -1.343174,0.10416 -2.148705,1.04923 l -3.3935149,3.52723 c -0.6269385,0.67717 -0.5757575,0.86404 -0.809253,1.94221 v 20.4847 c 0,0 0.1473848,0.46595 0.312539,0.634 0.1595668,0.16236 0.6072188,0.31255 0.6072188,0.31255 H 24.365133 c 0,0 0.447652,-0.15019 0.607219,-0.31255 0.165154,-0.16805 0.31254,-0.634 0.31254,-0.634 v -20.4847 c -0.233496,-1.07817 -0.182316,-1.26504 -0.809254,-1.94221 l -3.393514,-3.52723 c -0.805533,-0.94504 -1.130473,-0.97259 -2.148706,-1.04923 z"
       id="path835-9"
       inkscape:connector-curvature="0"
       sodipodi:nodetypes="cccccaccacccccc" />
  </g>
</svg>
